<svg width="220" height="170" viewBox="23 12 180 150" fill="none" xmlns="http://www.w3.org/2000/svg"><path d="M195.954 49.371c-.348-.689-.699-1.375-1.047-2.065-.146-.286-.342-.607-.752-.697-.814-.182-1.265.636-1.911 1.033-.681.42-1.616.34-2.564.26a10.66 10.66 0 00-1.317-.064c-1.526.053-2.806.8-4.239 1.168-2.122.55-4.481.245-6.65-.201a10.04 10.04 0 01-1.634 2.362c-.864-.382-1.386-1.115-1.302-1.83-.342-.03-.684-.06-1.025-.088-.712-.439.245-2.386-.442-2.842-.149-.096-.345-.149-.537-.19-.979-.204-2.032.114-3.092.435-.904.272-1.815.546-2.682.49a9.61 9.61 0 01-4.791-1.652c-.504-.348-.982-.742-1.641-.917-.705-.19-1.56-.073-2.116.286-.174.345-.345.69-.519 1.034-2.272-1.043-5.27-.345-7.778.377l-4.882 8.402c-.96.277-2.495.333-2.597-.394l-1.793.666c-.79-.766-2.595-.85-3.518-.164-.727.537-.839 1.337-1.075 2.059-.236.724-.792 1.521-1.824 1.662-.83-.693-2.253-1.002-3.493-.757.081.438-.777.704-1.358.538-.581-.17-.941-.57-1.345-.912-.404-.338.127 7.66-.482 7.769-.478.085-.786.4-1.159.628-.854.517-2.219.558-3.132.093l-.155.33c-.14-.38-.243-.625-.296-.677-.077-.076-.155-.15-.23-.225l-2.293-2.22c-.373.535-1.069.952-1.88 1.125l-1.097-2.696c-.251-.622-.752-1.379-1.668-1.35-.277.01-.557.097-.824.042-.702-.14-.438-.906-.795-1.355-.324-.41-1.172-.474-1.765-.26-.594.21-.988.616-1.358 1.007-.143-.418-1.075-.374-1.479-.055-.404.318-.538.774-.929 1.1-.392.328-1.306.41-1.498.004-.249.332-.721.572-1.246.636l-1.194-1.498c-.146.666-.484 1.311-.991 1.88l-1.74-2.023c.118.59-.569 1.11-1.302 1.402-.73.292-1.572.464-2.188.87-.462.304-.755.713-1.162 1.051-1.802 1.496-5.789-.277-8.51-.68-1.166 1.653-2.832 4.369-5.417 4.661l-2.67-.28c-.325.584-1.025 1.057-1.864 1.261-.416.103-.879.146-1.205.354-.647.409-.42 1.215-1.016 1.659-.473.35-2.023-1.075-2.707-1.119-2.613-.166-5.074-.09-7.51-.015-3.105.094-6.169.19-9.456-.213l-1.936.56c-1.417-1.503-2.834-3.007-4.254-4.511-.236-.251-.488-.514-.855-.669-1.019-.435-2.287.108-3.219.63a5.319 5.319 0 00-1.7-.995l-2.252.876c-1.206-.502-2.412-.999-3.617-1.501-1.52.777-2.468 2.076-2.483 3.396-.553-.23-1.352-.084-1.675.304-1.032.117-2.132-.134-2.871-.651-.43.14-.855.283-1.284.423-.1-.11-.195-.225-.295-.338v57.652c.14.149.255.322.336.479.348.69.699 1.376 1.05 2.065.146.283.342.605.752.698.814.178 1.265-.637 1.908-1.034.683-.42 1.616-.339 2.563-.26.445.038.895.076 1.321.062 1.526-.05 2.803-.798 4.239-1.169 2.119-.546 4.48-.242 6.646.205a9.947 9.947 0 011.638-2.363c.86.38 1.386 1.116 1.302 1.831l1.025.088c.709.438-.127 1.422.563 1.875.146.099.342.152.534.193 1.075.225 2.2.154 3.331.084.777-.049 1.557-.096 2.325-.049a9.65 9.65 0 014.791 1.656c.504.344.982.741 1.638.917.708.189 1.56.073 2.116-.29.174-.344.348-.689.522-1.03 2.268 1.042 5.27.344 7.778-.377l3.754-1.084c.96-.274 2.495-.33 2.597.398.6-.222 1.197-.447 1.793-.669.79.765 2.595.85 3.52.163.725-.534.837-1.334 1.076-2.059.236-.721.79-1.518 1.82-1.661.83.695 2.254 1.001 3.494.759-.081-.438.776-.707 1.358-.537.58.166.941.569 1.345.908.404.339.998.654 1.607.546.478-.085.786-.4 1.162-.628.851-.517 2.215-.558 3.129-.093l.158-.33c.137.379.24.625.296.677.074.076.152.149.229.225.762.739 1.526 1.481 2.291 2.22.373-.535 1.072-.953 1.883-1.125.363.897.73 1.796 1.097 2.696.251.622.752 1.378 1.668 1.349.277-.009.556-.096.824-.041.699.14.438.905.792 1.355.323.409 1.175.473 1.765.26.594-.21.991-.616 1.361-1.007.143.417 1.072.373 1.479.055.404-.318.535-.774.926-1.101.395-.327 1.305-.409 1.498-.003.249-.333.724-.572 1.246-.637l1.193 1.499c.146-.666.488-1.312.995-1.881.578.675 1.159 1.349 1.74 2.021-.121-.587.565-1.107 1.299-1.399.733-.292 1.575-.464 2.19-.87.46-.304.752-.713 1.163-1.052 1.799-1.495 5.111-1.223 7.833-.823.612-.865 2.032 2.26 3.614 5.388 1.436 2.836 3.005 5.669 4.235 5.528l2.67.284c.323-.584 1.025-1.058 1.864-1.262.417-.102.88-.149 1.206-.353.646-.412.419-1.215 1.016-1.659.472-.354 1.262-.336 1.945-.292 5.938.377 11.855.923 17.728 1.635l1.936-.558c1.417 1.504 2.834 3.006 4.251 4.513.239.251.491.511.857.668 1.019.435 2.287-.108 3.219-.63.46.411 1.041.75 1.7.992l2.253-.873 3.617 1.498c1.516-.773 2.467-2.073 2.483-3.393.55.228 1.352.085 1.675-.304 1.031-.117 2.134.134 2.871.651.429-.14.858-.283 1.28-.426.103.114.199.228.298.342l-1.755-25.925V49.85a2.166 2.166 0 01-.339-.479z" fill="#fff"/><mask id="prefix__a" style="mask-type:luminance" maskUnits="userSpaceOnUse" x="29" y="43" width="170" height="96"><path d="M29.998 43.387h168.644v95.443H29.998V43.387z" fill="#fff"/></mask><g mask="url(#prefix__a)"><path d="M195.954 48.381c-.348-.69-.699-1.376-1.047-2.062-.146-.286-.342-.607-.752-.7-.814-.179-1.265.636-1.911 1.033-1.004.62-2.032 1.165-3.368 1.212-1.526.05-2.673 1.513-4.108 1.88-2.12.55-4.481.246-6.647-.2-.208.426-.625.388-1.075.35-.426-.038-.877-.073-1.206.283-.864-.38-1.386-1.116-1.302-1.831-.342-.026-.684-.058-1.025-.088-.712-.438.124-1.419-.563-1.875-.146-.099-.342-.152-.537-.19-.954-.201-2.067.33-3.179.862-1.001.479-2.008.958-2.899.903-1.809-.114-3.067-2.565-4.366-3.458-.504-.345-.982-.74-1.641-.917-.705-.187-1.56-.073-2.116.289-.174.344-.345.686-.519 1.034-2.272-1.046-5.084 1.293-7.591 2.015l-4.882 8.402c-.957.277-2.495.333-2.598-.394-.596.222-1.193.444-1.793.665-.786-.762-2.591-.846-3.517-.163-.724.537-.839 1.338-1.076 2.062-.236.721-.789 1.518-1.824 1.661-.829-.695-2.439-2.645-3.679-2.4.081.438-.777.707-1.358.537-.581-.166-.941-.57-1.345-.908-.404-.339.127 7.657-.482 7.768-.478.085-.786.4-1.159.625-.854.52-2.218.561-3.132.097l-.155.33c-.14-.383-.243-.628-.296-.68a24.518 24.518 0 01-.23-.223l-2.293-2.222c-.373.534-1.069.955-1.88 1.127-.366-.9-.73-1.799-1.097-2.698-.251-.622-.752-1.376-1.668-1.35-.277.01-.557.097-.824.044-.702-.14-.438-.905-.795-1.355-.323-.409-1.172-.476-1.765-.263-.594.214-.988.62-1.358 1.008-.143-.415-1.075-.374-1.479-.053-.404.319-.538.771-.929 1.098-.392.328-1.306.412-1.498.006-.249.33-.721.573-1.246.637l-1.193-1.501c-.147.666-.485 1.311-.992 1.883-.289-.335-.478-.096-.668.146-.189.243-.376.485-.668.146.118.587-.569 1.107-1.302 1.4-.73.291-1.572.467-2.188.87-.463.303-.752.712-1.162 1.054-1.799 1.492-5.114 1.224-7.836.82-1.166 1.654-3.506 2.869-6.09 3.16l-2.67-.28c-.326.581-1.026 1.057-1.865 1.262-.416.1-.879.146-1.205.353-.644.41-.42 1.215-1.016 1.659-.473.35-3.751-.178-4.438-.219-5.938-.377-9.766-2.728-15.64-3.443-.645.187-1.292.374-1.935.558l-4.254-4.51c-.236-.254-.488-.514-.855-.671-1.019-.435-2.287.108-3.219.63-.242-.216-.49.018-.77.252-.249.21-.52.42-.83.306l-2.253.874-3.617-1.499c-1.52.774-2.47 2.074-2.483 3.394-.553-.228-1.727-1.119-2.054-.73-1.031.117-1.852-.648-2.591-1.168l-1.284.426c-.1-.114-.195-.228-.295-.342v57.653c.14.152.255.321.336.482.348.686.699 1.375 1.05 2.062.146.286.342.607.752.698.814.181 1.265-.637 1.908-1.031.684-.424 1.616-.342 2.564-.26.444.038.895.076 1.32.061 1.526-.049 2.803-.8 4.239-1.168 2.119-.549 4.48-.242 6.646.202a9.95 9.95 0 011.638-2.363c.86.382 1.386 1.116 1.302 1.831l1.025.088c.709.438-.127 1.422.563 1.878.146.096.342.148.534.189 1.075.225 2.2.155 3.331.085.777-.047 1.557-.096 2.325-.047a9.658 9.658 0 014.791 1.653c.504.348.982.742 1.638.917.708.19 1.56.073 2.116-.286l.522-1.034c2.268 1.043 4.947-1.46 7.455-2.181l3.753-1.081c.96-.277 2.499-.333 2.601.394l1.79-.668c.79.765 2.595.849 3.52.166.725-.537.84-1.338 1.076-2.062.236-.721.79-1.518 1.82-1.662.834.693 2.257 1.005 3.493.76-.08-.438.777-.707 1.362-.538.58.167.938.57 1.342.909.404.338 1.32 2.459 1.93 2.351.478-.085.786-.4 1.162-.625.851-.52 2.215-.561 3.129-.097l.158-.33c.137.383.24.628.296.681.074.073.152.149.23.222.761.742 1.525 1.48 2.29 2.222.373-.537 1.072-.955 1.883-1.127.363.899.73 1.799 1.097 2.698.251.62.752 1.376 1.668 1.35.277-.009.557-.097.824-.044.699.14.438.905.792 1.355.323.409 1.175.473 1.765.263.594-.213.991-.619 1.361-1.008.143.415 1.072.371 1.479.053.404-.319.535-.774.926-1.098.395-.327 1.305-.412 1.498-.006.249-.33.724-.573 1.246-.637.398.5.796.999 1.193 1.501.146-.666-.146-3.002.358-3.574l1.743 2.024c-.118-.587.569-1.107 1.299-1.399.733-.292 1.575-.465 2.191-.871.459-.303.752-.712 1.162-1.054 1.799-1.492 5.114-1.221 7.833-.821.613-.867 2.03 2.261 3.614 5.389 1.436 2.832 3.005 5.668 4.236 5.528.888.094 1.78.187 2.669.283.326-.584.596-.455 1.439-.66.413-.102 1.075-.359 1.401-.566.317-.199.631-.184.942-.167.32.018.633.035.938-.192.472-.351 3.446-1.662 4.133-1.618 5.938.376 9.667 2.248 15.54 2.964l1.936-.561 4.251 4.512c.239.254.491.514.857.672 1.019.432 2.287-.111 3.219-.631.24.213.488-.09.762-.394.251-.278.525-.555.839-.438l2.253-.873 3.617 1.498c1.516-.774 2.566-.251 2.582-1.571.55.23 1.352.084 1.675-.304 1.031-.117 2.135.134 2.871.654l1.28-.426c.103.111.199.227.299.338l-1.756-25.924V48.86a2.098 2.098 0 01-.339-.479z" fill="#F7F6F5"/></g><mask id="prefix__b" style="mask-type:luminance" maskUnits="userSpaceOnUse" x="37" y="131" width="153" height="2"><path d="M37.083 131.97h152.809v.733H37.083v-.733z" fill="#fff"/></mask><g mask="url(#prefix__b)"><mask id="prefix__c" style="mask-type:luminance" maskUnits="userSpaceOnUse" x="30" y="43" width="169" height="96"><path d="M195.954 48.381c-.348-.689-.699-1.375-1.047-2.062-.146-.286-.342-.607-.752-.7-.814-.179-1.265.636-1.911 1.033-1.004.62-2.032 1.166-3.369 1.212-1.525.05-2.672 1.513-4.107 1.881-2.12.55-4.481.245-6.647-.201-.208.426-.625.388-1.075.35-.426-.038-.877-.073-1.206.283-.864-.38-1.386-1.115-1.302-1.83-.342-.027-.684-.06-1.025-.089-.712-.438.245-2.386-.442-2.838-.149-.1-.345-.152-.537-.19-.942-.199-2.07.575-3.198 1.35-1.047.715-2.094 1.433-3.001 1.378-1.809-.114-3.067-2.564-4.366-3.458-.504-.345-.982-.739-1.641-.917-.705-.187-1.56-.073-2.116.289l-.519 1.034c-2.272-1.046-5.084 1.294-7.591 2.015l-4.882 8.402c-.957.278-2.495.333-2.598-.394l-1.793.666c-.786-.762-2.591-.847-3.517-.164-.724.538-.839 1.338-1.076 2.062-.236.721-.789 1.519-1.824 1.662-.829-.695-2.439-2.646-3.679-2.4.081.437-.777.706-1.358.536-.581-.166-.941-.569-1.345-.908-.404-.339.127 7.658-.482 7.769-.478.084-.786.4-1.159.625-.854.52-2.219.56-3.132.096l-.155.33c-.14-.383-.243-.628-.296-.68a25.862 25.862 0 01-.23-.222l-2.293-2.223c-.373.535-1.069.955-1.88 1.127-.366-.9-.73-1.799-1.097-2.698-.251-.622-.752-1.376-1.668-1.35-.277.01-.557.097-.824.045-.702-.14-.438-.906-.795-1.356-.324-.408-1.172-.476-1.765-.262-.594.213-.988.619-1.358 1.007-.143-.415-1.075-.374-1.479-.053-.404.319-.538.772-.929 1.099-.392.327-1.306.411-1.498.005-.249.33-.721.573-1.246.637-.398-.502-.796-1.002-1.194-1.501-.146.666-.484 1.311-.991 1.884-.289-.336-.478-.097-.668.146-.189.242-.376.484-.668.146.118.587-.569 1.107-1.302 1.399-.73.292-1.572.467-2.188.87-.463.304-.752.712-1.162 1.054-1.799 1.493-5.789-.28-8.51-.68-1.166 1.65-2.832 4.369-5.417 4.66l-2.67-.28c-.326.582-1.025 1.058-1.864 1.262-.416.1-.879.146-1.205.353-.644.41-.42 1.215-1.016 1.66-.473.35-4.515-1.59-5.2-1.63-5.937-.377-9.004-1.317-14.877-2.033-.646.187-1.293.374-1.936.558l-4.254-4.51c-.236-.253-.488-.513-.855-.671-1.019-.435-2.287.108-3.219.63-.242-.215-.49.018-.77.252-.25.21-.52.42-.83.307l-2.253.873-3.617-1.498c-1.52.773-2.47 2.073-2.483 3.393-.553-.228-1.727-1.118-2.054-.73-1.031.117-1.852-.648-2.591-1.168l-1.284.426c-.1-.114-.195-.227-.295-.341v57.652c.14.152.255.322.336.482.348.686.699 1.376 1.05 2.062.146.286.342.607.752.698.814.181 1.265-.637 1.908-1.031.683-.423 1.616-.342 2.563-.26.445.038.895.076 1.321.061 1.526-.049 2.803-.8 4.239-1.168 2.119-.549 4.48-.242 6.646.202a9.947 9.947 0 011.638-2.363c.86.383 1.386 1.116 1.302 1.831l1.025.088c.709.438-.127 1.422.563 1.878.146.096.342.149.534.19 1.075.224 2.2.154 3.331.084.777-.046 1.557-.096 2.325-.046a9.648 9.648 0 014.791 1.653c.504.347.982.741 1.638.917.708.189 1.56.073 2.116-.287l.522-1.033c2.268 1.042 4.947-1.461 7.455-2.182l3.753-1.081c.96-.277 2.499-.333 2.601.395.597-.222 1.193-.447 1.79-.669.79.765 2.595.85 3.52.166.725-.537.84-1.337 1.076-2.062.236-.721.79-1.518 1.82-1.661.834.692 2.257 1.004 3.493.759-.08-.438.777-.707 1.362-.537.58.166.938.569 1.342.908.404.339 1.32 2.459 1.93 2.351.478-.085.786-.4 1.162-.625.851-.52 2.215-.561 3.129-.096l.158-.33c.137.382.24.627.296.68.074.073.152.149.229.222.762.742 1.526 1.481 2.291 2.222.373-.537 1.072-.955 1.883-1.127.363.9.73 1.799 1.097 2.699.251.619.752 1.375 1.668 1.349.277-.009.556-.096.824-.044.699.14.438.905.792 1.355.323.409 1.175.473 1.765.263.594-.213.991-.619 1.361-1.008.143.415 1.072.371 1.479.053.404-.318.535-.774.926-1.098.395-.327 1.305-.412 1.498-.006.249-.33.724-.572 1.246-.637.398.5.796.999 1.193 1.502.146-.666-.146-3.003.358-3.575l1.743 2.024c-.118-.587.569-1.107 1.299-1.399.733-.292 1.575-.464 2.19-.87.46-.304.752-.713 1.163-1.055 1.799-1.492 5.114-1.22 7.833-.82.612-.868 2.029 2.26 3.614 5.388 1.436 2.833 3.005 5.668 4.236 5.528.888.094 1.78.187 2.669.284.326-.584.596-.456 1.439-.66.413-.103 1.075-.36 1.401-.567.317-.199.631-.184.941-.166.321.017.634.035.939-.193.472-.351 3.446-1.662 4.133-1.618 5.938.377 9.667 2.249 15.54 2.964l1.936-.561 4.251 4.513c.239.254.491.514.857.671 1.019.432 2.287-.111 3.219-.631.24.214.488-.09.762-.394.251-.277.525-.555.839-.438l2.253-.873 3.617 1.498c1.516-.774 2.566-.251 2.582-1.571.55.231 1.352.085 1.675-.304 1.031-.117 2.134.134 2.871.654l1.28-.426c.103.111.199.228.298.339l-1.755-25.925V48.86a2.1 2.1 0 01-.339-.479z" fill="#fff"/></mask><g mask="url(#prefix__c)"><path d="M37.086 132.576H189.75v-.603H37.086v.603z" fill="#DEDEDC"/></g></g><mask id="prefix__d" style="mask-type:luminance" maskUnits="userSpaceOnUse" x="37" y="124" width="153" height="2"><path d="M37.083 124.296h152.809v.73H37.083v-.73z" fill="#fff"/></mask><g mask="url(#prefix__d)"><mask id="prefix__e" style="mask-type:luminance" maskUnits="userSpaceOnUse" x="30" y="43" width="169" height="96"><path d="M195.954 48.381c-.348-.689-.699-1.375-1.047-2.062-.146-.286-.342-.607-.752-.7-.814-.179-1.265.636-1.911 1.033-1.004.62-2.032 1.166-3.369 1.212-1.525.05-2.672 1.513-4.107 1.881-2.12.55-4.481.245-6.647-.201-.208.426-.625.388-1.075.35-.426-.038-.877-.073-1.206.283-.864-.38-1.386-1.115-1.302-1.83-.342-.027-.684-.06-1.025-.089-.712-.438.245-2.386-.442-2.838-.149-.1-.345-.152-.537-.19-.942-.199-2.07.575-3.198 1.35-1.047.715-2.094 1.433-3.001 1.378-1.809-.114-3.067-2.564-4.366-3.458-.504-.345-.982-.739-1.641-.917-.705-.187-1.56-.073-2.116.289l-.519 1.034c-2.272-1.046-5.084 1.294-7.591 2.015l-4.882 8.402c-.957.278-2.495.333-2.598-.394l-1.793.666c-.786-.762-2.591-.847-3.517-.164-.724.538-.839 1.338-1.076 2.062-.236.721-.789 1.519-1.824 1.662-.829-.695-2.439-2.646-3.679-2.4.081.437-.777.706-1.358.536-.581-.166-.941-.569-1.345-.908-.404-.339.127 7.658-.482 7.769-.478.084-.786.4-1.159.625-.854.52-2.219.56-3.132.096l-.155.33c-.14-.383-.243-.628-.296-.68a25.862 25.862 0 01-.23-.222l-2.293-2.223c-.373.535-1.069.955-1.88 1.127-.366-.9-.73-1.799-1.097-2.698-.251-.622-.752-1.376-1.668-1.35-.277.01-.557.097-.824.045-.702-.14-.438-.906-.795-1.356-.324-.408-1.172-.476-1.765-.262-.594.213-.988.619-1.358 1.007-.143-.415-1.075-.374-1.479-.053-.404.319-.538.772-.929 1.099-.392.327-1.306.411-1.498.005-.249.33-.721.573-1.246.637-.398-.502-.796-1.002-1.194-1.501-.146.666-.484 1.311-.991 1.884-.289-.336-.478-.097-.668.146-.189.242-.376.484-.668.146.118.587-.569 1.107-1.302 1.399-.73.292-1.572.467-2.188.87-.463.304-.752.712-1.162 1.054-1.799 1.493-5.789-.28-8.51-.68-1.166 1.65-2.832 4.369-5.417 4.66l-2.67-.28c-.326.582-1.025 1.058-1.864 1.262-.416.1-.879.146-1.205.353-.644.41-.42 1.215-1.016 1.66-.473.35-4.515-1.59-5.2-1.63-5.937-.377-9.004-1.317-14.877-2.033-.646.187-1.293.374-1.936.558l-4.254-4.51c-.236-.253-.488-.513-.855-.671-1.019-.435-2.287.108-3.219.63-.242-.215-.49.018-.77.252-.25.21-.52.42-.83.307l-2.253.873-3.617-1.498c-1.52.773-2.47 2.073-2.483 3.393-.553-.228-1.727-1.118-2.054-.73-1.031.117-1.852-.648-2.591-1.168l-1.284.426c-.1-.114-.195-.227-.295-.341v57.652c.14.152.255.322.336.482.348.686.699 1.376 1.05 2.062.146.286.342.607.752.698.814.181 1.265-.637 1.908-1.031.683-.423 1.616-.342 2.563-.26.445.038.895.076 1.321.061 1.526-.049 2.803-.8 4.239-1.168 2.119-.549 4.48-.242 6.646.202a9.947 9.947 0 011.638-2.363c.86.383 1.386 1.116 1.302 1.831l1.025.088c.709.438-.127 1.422.563 1.878.146.096.342.149.534.19 1.075.224 2.2.154 3.331.084.777-.046 1.557-.096 2.325-.046a9.648 9.648 0 014.791 1.653c.504.347.982.741 1.638.917.708.189 1.56.073 2.116-.287l.522-1.033c2.268 1.042 4.947-1.461 7.455-2.182l3.753-1.081c.96-.277 2.499-.333 2.601.395.597-.222 1.193-.447 1.79-.669.79.765 2.595.85 3.52.166.725-.537.84-1.337 1.076-2.062.236-.721.79-1.518 1.82-1.661.834.692 2.257 1.004 3.493.759-.08-.438.777-.707 1.362-.537.58.166.938.569 1.342.908.404.339 1.32 2.459 1.93 2.351.478-.085.786-.4 1.162-.625.851-.52 2.215-.561 3.129-.096l.158-.33c.137.382.24.627.296.68.074.073.152.149.229.222.762.742 1.526 1.481 2.291 2.222.373-.537 1.072-.955 1.883-1.127.363.9.73 1.799 1.097 2.699.251.619.752 1.375 1.668 1.349.277-.009.556-.096.824-.044.699.14.438.905.792 1.355.323.409 1.175.473 1.765.263.594-.213.991-.619 1.361-1.008.143.415 1.072.371 1.479.053.404-.318.535-.774.926-1.098.395-.327 1.305-.412 1.498-.006.249-.33.724-.572 1.246-.637.398.5.796.999 1.193 1.502.146-.666-.146-3.003.358-3.575l1.743 2.024c-.118-.587.569-1.107 1.299-1.399.733-.292 1.575-.464 2.19-.87.46-.304.752-.713 1.163-1.055 1.799-1.492 5.114-1.22 7.833-.82.612-.868 2.029 2.26 3.614 5.388 1.436 2.833 3.005 5.668 4.236 5.528.888.094 1.78.187 2.669.284.326-.584.596-.456 1.439-.66.413-.103 1.075-.36 1.401-.567.317-.199.631-.184.941-.166.321.017.634.035.939-.193.472-.351 3.446-1.662 4.133-1.618 5.938.377 9.667 2.249 15.54 2.964l1.936-.561 4.251 4.513c.239.254.491.514.857.671 1.019.432 2.287-.111 3.219-.631.24.214.488-.09.762-.394.251-.277.525-.555.839-.438l2.253-.873 3.617 1.498c1.516-.774 2.566-.251 2.582-1.571.55.231 1.352.085 1.675-.304 1.031-.117 2.134.134 2.871.654l1.28-.426c.103.111.199.228.298.339l-1.755-25.925V48.86a2.1 2.1 0 01-.339-.479z" fill="#fff"/></mask><g mask="url(#prefix__e)"><path d="M37.086 124.898H189.75v-.6H37.086v.6z" fill="#DEDEDC"/></g></g><mask id="prefix__f" style="mask-type:luminance" maskUnits="userSpaceOnUse" x="37" y="116" width="153" height="2"><path d="M37.083 116.618h152.809v.733H37.083v-.733z" fill="#fff"/></mask><g mask="url(#prefix__f)"><mask id="prefix__g" style="mask-type:luminance" maskUnits="userSpaceOnUse" x="30" y="43" width="169" height="96"><path d="M195.954 48.381c-.348-.689-.699-1.375-1.047-2.062-.146-.286-.342-.607-.752-.7-.814-.179-1.265.636-1.911 1.033-1.004.62-2.032 1.166-3.369 1.212-1.525.05-2.672 1.513-4.107 1.881-2.12.55-4.481.245-6.647-.201-.208.426-.625.388-1.075.35-.426-.038-.877-.073-1.206.283-.864-.38-1.386-1.115-1.302-1.83-.342-.027-.684-.06-1.025-.089-.712-.438.245-2.386-.442-2.838-.149-.1-.345-.152-.537-.19-.942-.199-2.07.575-3.198 1.35-1.047.715-2.094 1.433-3.001 1.378-1.809-.114-3.067-2.564-4.366-3.458-.504-.345-.982-.739-1.641-.917-.705-.187-1.56-.073-2.116.289l-.519 1.034c-2.272-1.046-5.084 1.294-7.591 2.015l-4.882 8.402c-.957.278-2.495.333-2.598-.394l-1.793.666c-.786-.762-2.591-.847-3.517-.164-.724.538-.839 1.338-1.076 2.062-.236.721-.789 1.519-1.824 1.662-.829-.695-2.439-2.646-3.679-2.4.081.437-.777.706-1.358.536-.581-.166-.941-.569-1.345-.908-.404-.339.127 7.658-.482 7.769-.478.084-.786.4-1.159.625-.854.52-2.219.56-3.132.096l-.155.33c-.14-.383-.243-.628-.296-.68a25.862 25.862 0 01-.23-.222l-2.293-2.223c-.373.535-1.069.955-1.88 1.127-.366-.9-.73-1.799-1.097-2.698-.251-.622-.752-1.376-1.668-1.35-.277.01-.557.097-.824.045-.702-.14-.438-.906-.795-1.356-.324-.408-1.172-.476-1.765-.262-.594.213-.988.619-1.358 1.007-.143-.415-1.075-.374-1.479-.053-.404.319-.538.772-.929 1.099-.392.327-1.306.411-1.498.005-.249.33-.721.573-1.246.637-.398-.502-.796-1.002-1.194-1.501-.146.666-.484 1.311-.991 1.884-.289-.336-.478-.097-.668.146-.189.242-.376.484-.668.146.118.587-.569 1.107-1.302 1.399-.73.292-1.572.467-2.188.87-.463.304-.752.712-1.162 1.054-1.799 1.493-5.789-.28-8.51-.68-1.166 1.65-2.832 4.369-5.417 4.66l-2.67-.28c-.326.582-1.025 1.058-1.864 1.262-.416.1-.879.146-1.205.353-.644.41-.42 1.215-1.016 1.66-.473.35-4.515-1.59-5.2-1.63-5.937-.377-9.004-1.317-14.877-2.033-.646.187-1.293.374-1.936.558l-4.254-4.51c-.236-.253-.488-.513-.855-.671-1.019-.435-2.287.108-3.219.63-.242-.215-.49.018-.77.252-.25.21-.52.42-.83.307l-2.253.873-3.617-1.498c-1.52.773-2.47 2.073-2.483 3.393-.553-.228-1.727-1.118-2.054-.73-1.031.117-1.852-.648-2.591-1.168l-1.284.426c-.1-.114-.195-.227-.295-.341v57.652c.14.152.255.322.336.482.348.686.699 1.376 1.05 2.062.146.286.342.607.752.698.814.181 1.265-.637 1.908-1.031.683-.423 1.616-.342 2.563-.26.445.038.895.076 1.321.061 1.526-.049 2.803-.8 4.239-1.168 2.119-.549 4.48-.242 6.646.202a9.947 9.947 0 011.638-2.363c.86.383 1.386 1.116 1.302 1.831l1.025.088c.709.438-.127 1.422.563 1.878.146.096.342.149.534.19 1.075.224 2.2.154 3.331.084.777-.046 1.557-.096 2.325-.046a9.648 9.648 0 014.791 1.653c.504.347.982.741 1.638.917.708.189 1.56.073 2.116-.287l.522-1.033c2.268 1.042 4.947-1.461 7.455-2.182l3.753-1.081c.96-.277 2.499-.333 2.601.395.597-.222 1.193-.447 1.79-.669.79.765 2.595.85 3.52.166.725-.537.84-1.337 1.076-2.062.236-.721.79-1.518 1.82-1.661.834.692 2.257 1.004 3.493.759-.08-.438.777-.707 1.362-.537.58.166.938.569 1.342.908.404.339 1.32 2.459 1.93 2.351.478-.085.786-.4 1.162-.625.851-.52 2.215-.561 3.129-.096l.158-.33c.137.382.24.627.296.68.074.073.152.149.229.222.762.742 1.526 1.481 2.291 2.222.373-.537 1.072-.955 1.883-1.127.363.9.73 1.799 1.097 2.699.251.619.752 1.375 1.668 1.349.277-.009.556-.096.824-.044.699.14.438.905.792 1.355.323.409 1.175.473 1.765.263.594-.213.991-.619 1.361-1.008.143.415 1.072.371 1.479.053.404-.318.535-.774.926-1.098.395-.327 1.305-.412 1.498-.006.249-.33.724-.572 1.246-.637.398.5.796.999 1.193 1.502.146-.666-.146-3.003.358-3.575l1.743 2.024c-.118-.587.569-1.107 1.299-1.399.733-.292 1.575-.464 2.19-.87.46-.304.752-.713 1.163-1.055 1.799-1.492 5.114-1.22 7.833-.82.612-.868 2.029 2.26 3.614 5.388 1.436 2.833 3.005 5.668 4.236 5.528.888.094 1.78.187 2.669.284.326-.584.596-.456 1.439-.66.413-.103 1.075-.36 1.401-.567.317-.199.631-.184.941-.166.321.017.634.035.939-.193.472-.351 3.446-1.662 4.133-1.618 5.938.377 9.667 2.249 15.54 2.964l1.936-.561 4.251 4.513c.239.254.491.514.857.671 1.019.432 2.287-.111 3.219-.631.24.214.488-.09.762-.394.251-.277.525-.555.839-.438l2.253-.873 3.617 1.498c1.516-.774 2.566-.251 2.582-1.571.55.231 1.352.085 1.675-.304 1.031-.117 2.134.134 2.871.654l1.28-.426c.103.111.199.228.298.339l-1.755-25.925V48.86a2.1 2.1 0 01-.339-.479z" fill="#fff"/></mask><g mask="url(#prefix__g)"><path d="M37.086 117.223H189.75v-.6H37.086v.6z" fill="#DEDEDC"/></g></g><mask id="prefix__h" style="mask-type:luminance" maskUnits="userSpaceOnUse" x="37" y="108" width="153" height="2"><path d="M37.083 108.943h152.809v.73H37.083v-.73z" fill="#fff"/></mask><g mask="url(#prefix__h)"><mask id="prefix__i" style="mask-type:luminance" maskUnits="userSpaceOnUse" x="30" y="43" width="169" height="96"><path d="M195.954 48.381c-.348-.689-.699-1.375-1.047-2.062-.146-.286-.342-.607-.752-.7-.814-.179-1.265.636-1.911 1.033-1.004.62-2.032 1.166-3.369 1.212-1.525.05-2.672 1.513-4.107 1.881-2.12.55-4.481.245-6.647-.201-.208.426-.625.388-1.075.35-.426-.038-.877-.073-1.206.283-.864-.38-1.386-1.115-1.302-1.83-.342-.027-.684-.06-1.025-.089-.712-.438.245-2.386-.442-2.838-.149-.1-.345-.152-.537-.19-.942-.199-2.07.575-3.198 1.35-1.047.715-2.094 1.433-3.001 1.378-1.809-.114-3.067-2.564-4.366-3.458-.504-.345-.982-.739-1.641-.917-.705-.187-1.56-.073-2.116.289l-.519 1.034c-2.272-1.046-5.084 1.294-7.591 2.015l-4.882 8.402c-.957.278-2.495.333-2.598-.394l-1.793.666c-.786-.762-2.591-.847-3.517-.164-.724.538-.839 1.338-1.076 2.062-.236.721-.789 1.519-1.824 1.662-.829-.695-2.439-2.646-3.679-2.4.081.437-.777.706-1.358.536-.581-.166-.941-.569-1.345-.908-.404-.339.127 7.658-.482 7.769-.478.084-.786.4-1.159.625-.854.52-2.219.56-3.132.096l-.155.33c-.14-.383-.243-.628-.296-.68a25.862 25.862 0 01-.23-.222l-2.293-2.223c-.373.535-1.069.955-1.88 1.127-.366-.9-.73-1.799-1.097-2.698-.251-.622-.752-1.376-1.668-1.35-.277.01-.557.097-.824.045-.702-.14-.438-.906-.795-1.356-.324-.408-1.172-.476-1.765-.262-.594.213-.988.619-1.358 1.007-.143-.415-1.075-.374-1.479-.053-.404.319-.538.772-.929 1.099-.392.327-1.306.411-1.498.005-.249.33-.721.573-1.246.637-.398-.502-.796-1.002-1.194-1.501-.146.666-.484 1.311-.991 1.884-.289-.336-.478-.097-.668.146-.189.242-.376.484-.668.146.118.587-.569 1.107-1.302 1.399-.73.292-1.572.467-2.188.87-.463.304-.752.712-1.162 1.054-1.799 1.493-5.789-.28-8.51-.68-1.166 1.65-2.832 4.369-5.417 4.66l-2.67-.28c-.326.582-1.025 1.058-1.864 1.262-.416.1-.879.146-1.205.353-.644.41-.42 1.215-1.016 1.66-.473.35-4.515-1.59-5.2-1.63-5.937-.377-9.004-1.317-14.877-2.033-.646.187-1.293.374-1.936.558l-4.254-4.51c-.236-.253-.488-.513-.855-.671-1.019-.435-2.287.108-3.219.63-.242-.215-.49.018-.77.252-.25.21-.52.42-.83.307l-2.253.873-3.617-1.498c-1.52.773-2.47 2.073-2.483 3.393-.553-.228-1.727-1.118-2.054-.73-1.031.117-1.852-.648-2.591-1.168l-1.284.426c-.1-.114-.195-.227-.295-.341v57.652c.14.152.255.322.336.482.348.686.699 1.376 1.05 2.062.146.286.342.607.752.698.814.181 1.265-.637 1.908-1.031.683-.423 1.616-.342 2.563-.26.445.038.895.076 1.321.061 1.526-.049 2.803-.8 4.239-1.168 2.119-.549 4.48-.242 6.646.202a9.947 9.947 0 011.638-2.363c.86.383 1.386 1.116 1.302 1.831l1.025.088c.709.438-.127 1.422.563 1.878.146.096.342.149.534.19 1.075.224 2.2.154 3.331.084.777-.046 1.557-.096 2.325-.046a9.648 9.648 0 014.791 1.653c.504.347.982.741 1.638.917.708.189 1.56.073 2.116-.287l.522-1.033c2.268 1.042 4.947-1.461 7.455-2.182l3.753-1.081c.96-.277 2.499-.333 2.601.395.597-.222 1.193-.447 1.79-.669.79.765 2.595.85 3.52.166.725-.537.84-1.337 1.076-2.062.236-.721.79-1.518 1.82-1.661.834.692 2.257 1.004 3.493.759-.08-.438.777-.707 1.362-.537.58.166.938.569 1.342.908.404.339 1.32 2.459 1.93 2.351.478-.085.786-.4 1.162-.625.851-.52 2.215-.561 3.129-.096l.158-.33c.137.382.24.627.296.68.074.073.152.149.229.222.762.742 1.526 1.481 2.291 2.222.373-.537 1.072-.955 1.883-1.127.363.9.73 1.799 1.097 2.699.251.619.752 1.375 1.668 1.349.277-.009.556-.096.824-.044.699.14.438.905.792 1.355.323.409 1.175.473 1.765.263.594-.213.991-.619 1.361-1.008.143.415 1.072.371 1.479.053.404-.318.535-.774.926-1.098.395-.327 1.305-.412 1.498-.006.249-.33.724-.572 1.246-.637.398.5.796.999 1.193 1.502.146-.666-.146-3.003.358-3.575l1.743 2.024c-.118-.587.569-1.107 1.299-1.399.733-.292 1.575-.464 2.19-.87.46-.304.752-.713 1.163-1.055 1.799-1.492 5.114-1.22 7.833-.82.612-.868 2.029 2.26 3.614 5.388 1.436 2.833 3.005 5.668 4.236 5.528.888.094 1.78.187 2.669.284.326-.584.596-.456 1.439-.66.413-.103 1.075-.36 1.401-.567.317-.199.631-.184.941-.166.321.017.634.035.939-.193.472-.351 3.446-1.662 4.133-1.618 5.938.377 9.667 2.249 15.54 2.964l1.936-.561 4.251 4.513c.239.254.491.514.857.671 1.019.432 2.287-.111 3.219-.631.24.214.488-.09.762-.394.251-.277.525-.555.839-.438l2.253-.873 3.617 1.498c1.516-.774 2.566-.251 2.582-1.571.55.231 1.352.085 1.675-.304 1.031-.117 2.134.134 2.871.654l1.28-.426c.103.111.199.228.298.339l-1.755-25.925V48.86a2.1 2.1 0 01-.339-.479z" fill="#fff"/></mask><g mask="url(#prefix__i)"><path d="M189.749 109.548H37.086v-.6H189.75v.6z" fill="#DEDEDC"/></g></g><mask id="prefix__j" style="mask-type:luminance" maskUnits="userSpaceOnUse" x="37" y="101" width="153" height="1"><path d="M37.083 101.268h152.809v.73H37.083v-.73z" fill="#fff"/></mask><g mask="url(#prefix__j)"><mask id="prefix__k" style="mask-type:luminance" maskUnits="userSpaceOnUse" x="30" y="43" width="169" height="96"><path d="M195.954 48.381c-.348-.69-.699-1.376-1.047-2.062-.146-.286-.342-.607-.752-.7-.814-.179-1.265.636-1.911 1.033-1.004.62-2.032 1.165-3.369 1.212-1.525.05-2.672 1.513-4.107 1.88-2.12.55-4.481.246-6.647-.2-.208.426-.625.388-1.075.35-.426-.038-.877-.073-1.206.283-.864-.38-1.386-1.115-1.302-1.831-.342-.026-.684-.058-1.025-.088-.712-.438.245-2.386-.442-2.838-.149-.1-.345-.152-.537-.19-.942-.199-2.07.575-3.198 1.35-1.047.715-2.094 1.433-3.001 1.378-1.809-.114-3.067-2.565-4.366-3.458-.504-.345-.982-.74-1.641-.917-.705-.187-1.56-.073-2.116.289l-.519 1.034c-2.272-1.046-5.084 1.294-7.591 2.015l-4.882 8.402c-.957.277-2.495.333-2.598-.394l-1.793.666c-.786-.763-2.591-.847-3.517-.164-.724.537-.839 1.338-1.076 2.062-.236.721-.789 1.518-1.824 1.662-.829-.695-2.439-2.646-3.679-2.401.081.438-.777.707-1.358.537-.581-.166-.941-.57-1.345-.908-.404-.339.127 7.658-.482 7.768-.478.085-.786.4-1.159.626-.854.52-2.219.56-3.132.096l-.155.33c-.14-.383-.243-.628-.296-.68a24.518 24.518 0 01-.23-.222l-2.293-2.223c-.373.534-1.069.955-1.88 1.127-.366-.9-.73-1.799-1.097-2.698-.251-.622-.752-1.376-1.668-1.35-.277.01-.557.097-.824.044-.702-.14-.438-.905-.795-1.355-.324-.409-1.172-.476-1.765-.263-.594.214-.988.62-1.358 1.008-.143-.415-1.075-.374-1.479-.053-.404.319-.538.771-.929 1.099-.392.327-1.306.411-1.498.005-.249.33-.721.573-1.246.637-.398-.502-.796-1.002-1.194-1.501-.146.666-.484 1.311-.991 1.884-.289-.336-.478-.097-.668.146-.189.242-.376.484-.668.146.118.587-.569 1.106-1.302 1.398-.73.293-1.572.468-2.188.87-.463.305-.752.713-1.162 1.055-1.799 1.492-5.789-.28-8.51-.68-1.166 1.65-2.832 4.369-5.417 4.66l-2.67-.28c-.326.581-1.025 1.057-1.864 1.262-.416.1-.879.146-1.205.353-.644.41-.42 1.215-1.016 1.66-.473.35-4.515-1.59-5.2-1.63-5.937-.377-9.004-1.318-14.877-2.033-.646.187-1.293.374-1.936.558l-4.254-4.51c-.236-.254-.488-.514-.855-.671-1.019-.435-2.287.108-3.219.63-.242-.215-.49.018-.77.252-.25.21-.52.42-.83.306l-2.253.874-3.617-1.499c-1.52.774-2.47 2.074-2.483 3.394-.553-.228-1.727-1.118-2.054-.73-1.031.117-1.852-.648-2.591-1.168l-1.284.426c-.1-.114-.195-.228-.295-.342v57.653c.14.152.255.321.336.482.348.686.699 1.376 1.05 2.062.146.286.342.607.752.698.814.181 1.265-.637 1.908-1.031.683-.424 1.616-.342 2.563-.26.445.038.895.076 1.321.061 1.526-.049 2.803-.8 4.239-1.168 2.119-.549 4.48-.242 6.646.202a9.947 9.947 0 011.638-2.363c.86.383 1.386 1.116 1.302 1.831l1.025.088c.709.438-.127 1.422.563 1.878.146.096.342.149.534.189 1.075.225 2.2.155 3.331.085.777-.047 1.557-.096 2.325-.047a9.658 9.658 0 014.791 1.653c.504.348.982.742 1.638.917.708.19 1.56.073 2.116-.286l.522-1.034c2.268 1.043 4.947-1.46 7.455-2.181l3.753-1.081c.96-.277 2.499-.333 2.601.395.597-.222 1.193-.447 1.79-.669.79.765 2.595.85 3.52.166.725-.537.84-1.337 1.076-2.062.236-.721.79-1.518 1.82-1.661.834.692 2.257 1.004 3.493.759-.08-.438.777-.707 1.362-.537.58.166.938.569 1.342.908.404.339 1.32 2.459 1.93 2.351.478-.085.786-.4 1.162-.625.851-.52 2.215-.561 3.129-.097l.158-.33c.137.383.24.628.296.681.074.073.152.149.229.222.762.742 1.526 1.481 2.291 2.222.373-.537 1.072-.955 1.883-1.127.363.9.73 1.799 1.097 2.699.251.619.752 1.375 1.668 1.349.277-.009.556-.097.824-.044.699.14.438.905.792 1.355.323.409 1.175.473 1.765.263.594-.213.991-.619 1.361-1.008.143.415 1.072.371 1.479.053.404-.318.535-.774.926-1.098.395-.327 1.305-.412 1.498-.006.249-.33.724-.572 1.246-.637.398.5.796.999 1.193 1.501.146-.665-.146-3.002.358-3.574l1.743 2.024c-.118-.587.569-1.107 1.299-1.399.733-.292 1.575-.465 2.19-.871.46-.303.752-.712 1.163-1.054 1.799-1.492 5.114-1.221 7.833-.82.612-.868 2.029 2.26 3.614 5.388 1.436 2.833 3.005 5.668 4.236 5.528.888.094 1.78.187 2.669.283.326-.584.596-.455 1.439-.66.413-.102 1.075-.359 1.401-.566.317-.199.631-.184.941-.167.321.018.634.035.939-.192.472-.351 3.446-1.662 4.133-1.618 5.938.376 9.667 2.248 15.54 2.964l1.936-.561 4.251 4.512c.239.254.491.514.857.672 1.019.432 2.287-.111 3.219-.631.24.213.488-.09.762-.394.251-.277.525-.555.839-.438l2.253-.873 3.617 1.498c1.516-.774 2.566-.251 2.582-1.571.55.23 1.352.084 1.675-.304 1.031-.117 2.134.134 2.871.654l1.28-.426c.103.111.199.228.298.339l-1.755-25.925V48.86a2.098 2.098 0 01-.339-.479z" fill="#fff"/></mask><g mask="url(#prefix__k)"><path d="M189.749 101.873H37.086v-.602H189.75v.602z" fill="#DEDEDC"/></g></g><mask id="prefix__l" style="mask-type:luminance" maskUnits="userSpaceOnUse" x="37" y="93" width="153" height="2"><path d="M37.083 93.59h152.809v.733H37.083v-.733z" fill="#fff"/></mask><g mask="url(#prefix__l)"><mask id="prefix__m" style="mask-type:luminance" maskUnits="userSpaceOnUse" x="30" y="43" width="169" height="96"><path d="M195.954 48.38c-.348-.689-.699-1.375-1.047-2.061-.146-.286-.342-.608-.752-.701-.814-.178-1.265.637-1.911 1.034-1.004.619-2.032 1.165-3.369 1.212-1.525.05-2.672 1.513-4.107 1.88-2.12.55-4.481.246-6.647-.2-.208.425-.625.388-1.075.35-.426-.038-.877-.073-1.206.283-.864-.38-1.386-1.116-1.302-1.831-.342-.027-.684-.059-1.025-.088-.712-.438.245-2.386-.442-2.839-.149-.099-.345-.151-.537-.19-.942-.198-2.07.576-3.198 1.35-1.047.715-2.094 1.434-3.001 1.378-1.809-.114-3.067-2.564-4.366-3.458-.504-.344-.982-.739-1.641-.917-.705-.187-1.56-.073-2.116.29-.174.344-.345.686-.519 1.033-2.272-1.045-5.084 1.294-7.591 2.015l-4.882 8.403c-.957.277-2.495.333-2.598-.395l-1.793.666c-.786-.762-2.591-.847-3.517-.163-.724.537-.839 1.337-1.076 2.062-.236.72-.789 1.518-1.824 1.661-.829-.695-2.439-2.646-3.679-2.4.081.438-.777.706-1.358.537-.581-.166-.941-.57-1.345-.908-.404-.339.127 7.657-.482 7.768-.478.085-.786.4-1.159.625-.854.52-2.219.56-3.132.097l-.155.33c-.14-.383-.243-.628-.296-.68l-.23-.223c-.764-.742-1.528-1.48-2.293-2.222-.373.534-1.069.955-1.88 1.127-.366-.9-.73-1.8-1.097-2.699-.251-.622-.752-1.375-1.668-1.349-.277.009-.557.097-.824.044-.702-.14-.438-.905-.795-1.355-.324-.409-1.172-.476-1.765-.263-.594.213-.988.62-1.358 1.008-.143-.415-1.075-.374-1.479-.053-.404.318-.538.771-.929 1.098-.392.327-1.306.412-1.498.006-.249.33-.721.572-1.246.637-.398-.503-.796-1.002-1.194-1.502-.146.666-.484 1.312-.991 1.884-.289-.336-.478-.096-.668.146-.189.243-.376.485-.668.146.118.587-.569 1.107-1.302 1.4-.73.291-1.572.466-2.188.87-.463.303-.752.712-1.162 1.054-1.799 1.492-5.789-.28-8.51-.68-1.166 1.65-2.832 4.368-5.417 4.66l-2.67-.28c-.326.581-1.025 1.057-1.864 1.262-.416.099-.879.146-1.205.353-.644.409-.42 1.215-1.016 1.659-.473.35-4.515-1.589-5.2-1.63-5.937-.377-9.004-1.317-14.877-2.032l-1.936.557c-1.417-1.5-2.834-3.005-4.254-4.509-.236-.254-.488-.514-.855-.672-1.019-.435-2.287.108-3.219.631-.242-.216-.49.018-.77.251-.25.21-.52.421-.83.307l-2.253.873-3.617-1.498c-1.52.774-2.47 2.074-2.483 3.394-.553-.228-1.727-1.119-2.054-.73-1.031.116-1.852-.649-2.591-1.169l-1.284.427c-.1-.114-.195-.228-.295-.342v57.653c.14.152.255.321.336.482.348.686.699 1.375 1.05 2.062.146.286.342.607.752.698.814.181 1.265-.637 1.908-1.031.683-.424 1.616-.342 2.563-.26.445.038.895.076 1.321.061 1.526-.05 2.803-.8 4.239-1.168 2.119-.549 4.48-.243 6.646.201a9.962 9.962 0 011.638-2.362c.86.382 1.386 1.115 1.302 1.831l1.025.087c.709.438-.127 1.423.563 1.878.146.097.342.149.534.19 1.075.225 2.2.155 3.331.085.777-.047 1.557-.097 2.325-.047a9.648 9.648 0 014.791 1.653c.504.348.982.742 1.638.917.708.19 1.56.073 2.116-.286l.522-1.034c2.268 1.043 4.947-1.46 7.455-2.182l3.753-1.08c.96-.278 2.499-.333 2.601.394.597-.222 1.193-.447 1.79-.669.79.766 2.595.85 3.52.167.725-.538.84-1.338 1.076-2.062.236-.721.79-1.519 1.82-1.662.834.692 2.257 1.005 3.493.76-.08-.439.777-.707 1.362-.538.58.167.938.57 1.342.908.404.339 1.32 2.459 1.93 2.351.478-.084.786-.4 1.162-.625.851-.519 2.215-.56 3.129-.096l.158-.33c.137.383.24.628.296.681.074.073.152.148.229.221.762.742 1.526 1.481 2.291 2.223.373-.537 1.072-.955 1.883-1.127.363.899.73 1.799 1.097 2.698.251.619.752 1.376 1.668 1.349.277-.008.556-.096.824-.043.699.14.438.905.792 1.355.323.409 1.175.473 1.765.263.594-.214.991-.62 1.361-1.008.143.415 1.072.371 1.479.053.404-.319.535-.774.926-1.099.395-.327 1.305-.411 1.498-.005.249-.33.724-.573 1.246-.637.398.499.796.999 1.193 1.501.146-.666-.146-3.002.358-3.575l1.743 2.024c-.118-.587.569-1.107 1.299-1.399.733-.292 1.575-.464 2.19-.87.46-.304.752-.712 1.163-1.054 1.799-1.493 5.114-1.221 7.833-.821.612-.867 2.029 2.261 3.614 5.388 1.436 2.833 3.005 5.669 4.236 5.529.888.093 1.78.187 2.669.283.326-.584.596-.455 1.439-.66.413-.102 1.075-.359 1.401-.566.317-.199.631-.184.941-.167.321.018.634.035.939-.193.472-.35 3.446-1.661 4.133-1.618 5.938.377 9.667 2.249 15.54 2.965l1.936-.561 4.251 4.512c.239.254.491.514.857.672 1.019.432 2.287-.111 3.219-.631.24.213.488-.091.762-.394.251-.278.525-.555.839-.438l2.253-.874 3.617 1.499c1.516-.774 2.566-.252 2.582-1.572.55.231 1.352.085 1.675-.303 1.031-.117 2.134.134 2.871.654l1.28-.427c.103.111.199.228.298.339l-1.755-25.925V48.86a2.1 2.1 0 01-.339-.48z" fill="#fff"/></mask><g mask="url(#prefix__m)"><path d="M189.749 94.198H37.086v-.603H189.75v.603z" fill="#DEDEDC"/></g></g><mask id="prefix__n" style="mask-type:luminance" maskUnits="userSpaceOnUse" x="37" y="85" width="153" height="2"><path d="M37.083 85.915h152.809v.73H37.083v-.73z" fill="#fff"/></mask><g mask="url(#prefix__n)"><mask id="prefix__o" style="mask-type:luminance" maskUnits="userSpaceOnUse" x="30" y="43" width="169" height="96"><path d="M195.954 48.381c-.348-.69-.699-1.376-1.047-2.062-.146-.286-.342-.607-.752-.7-.814-.179-1.265.636-1.911 1.033-1.004.62-2.032 1.165-3.369 1.212-1.525.05-2.672 1.513-4.107 1.88-2.12.55-4.481.246-6.647-.2-.208.426-.625.388-1.075.35-.426-.038-.877-.073-1.206.283-.864-.38-1.386-1.116-1.302-1.831-.342-.026-.684-.058-1.025-.088-.712-.438.245-2.386-.442-2.838-.149-.1-.345-.152-.537-.19-.942-.199-2.07.575-3.198 1.349-1.047.715-2.094 1.434-3.001 1.379-1.809-.114-3.067-2.565-4.366-3.458-.504-.345-.982-.74-1.641-.917-.705-.187-1.56-.073-2.116.289-.174.344-.345.686-.519 1.034-2.272-1.046-5.084 1.293-7.591 2.015l-4.882 8.402c-.957.277-2.495.333-2.598-.394-.597.222-1.193.444-1.793.665-.786-.762-2.591-.846-3.517-.163-.724.537-.839 1.338-1.076 2.062-.236.721-.789 1.518-1.824 1.661-.829-.695-2.439-2.645-3.679-2.4.081.438-.777.707-1.358.537-.581-.166-.941-.57-1.345-.908-.404-.339.127 7.657-.482 7.768-.478.085-.786.4-1.159.625-.854.52-2.219.561-3.132.097l-.155.33c-.14-.383-.243-.628-.296-.68a24.518 24.518 0 01-.23-.223l-2.293-2.222c-.373.534-1.069.955-1.88 1.127-.366-.9-.73-1.799-1.097-2.698-.251-.622-.752-1.376-1.668-1.35-.277.01-.557.097-.824.044-.702-.14-.438-.905-.795-1.355-.324-.409-1.172-.476-1.765-.263-.594.214-.988.62-1.358 1.008-.143-.415-1.075-.374-1.479-.053-.404.319-.538.771-.929 1.098-.392.328-1.306.412-1.498.006-.249.33-.721.573-1.246.637-.398-.502-.796-1.002-1.194-1.501-.146.666-.484 1.311-.991 1.883-.289-.335-.478-.096-.668.146-.189.243-.376.485-.668.146.118.587-.569 1.107-1.302 1.4-.73.291-1.572.467-2.188.87-.463.303-.752.712-1.162 1.054-1.799 1.492-5.789-.28-8.51-.68-1.166 1.65-2.832 4.369-5.417 4.66l-2.67-.28c-.326.581-1.025 1.057-1.864 1.262-.416.1-.879.146-1.205.353-.644.41-.42 1.215-1.016 1.659-.473.35-4.515-1.589-5.2-1.63-5.937-.376-9.004-1.317-14.877-2.032-.646.187-1.293.374-1.936.558l-4.254-4.51c-.236-.254-.488-.514-.855-.671-1.019-.435-2.287.108-3.219.63-.242-.216-.49.018-.77.252-.25.21-.52.42-.83.306l-2.253.874-3.617-1.499c-1.52.774-2.47 2.074-2.483 3.394-.553-.228-1.727-1.119-2.054-.73-1.031.117-1.852-.648-2.591-1.168l-1.284.426c-.1-.114-.195-.228-.295-.342v57.653c.14.152.255.321.336.482.348.686.699 1.375 1.05 2.062.146.286.342.607.752.698.814.181 1.265-.637 1.908-1.031.683-.424 1.616-.342 2.563-.26.445.038.895.076 1.321.061 1.526-.049 2.803-.8 4.239-1.168 2.119-.549 4.48-.242 6.646.202a9.947 9.947 0 011.638-2.363c.86.382 1.386 1.116 1.302 1.831l1.025.088c.709.438-.127 1.422.563 1.878.146.096.342.148.534.189 1.075.225 2.2.155 3.331.085.777-.047 1.557-.096 2.325-.047a9.658 9.658 0 014.791 1.653c.504.348.982.742 1.638.917.708.19 1.56.073 2.116-.286l.522-1.034c2.268 1.043 4.947-1.46 7.455-2.181l3.753-1.081c.96-.277 2.499-.333 2.601.394l1.79-.668c.79.765 2.595.849 3.52.166.725-.537.84-1.338 1.076-2.062.236-.721.79-1.518 1.82-1.662.834.693 2.257 1.005 3.493.76-.08-.438.777-.707 1.362-.538.58.167.938.57 1.342.909.404.338 1.32 2.459 1.93 2.351.478-.085.786-.4 1.162-.625.851-.52 2.215-.561 3.129-.097l.158-.33c.137.383.24.628.296.681.074.073.152.149.229.222.762.742 1.526 1.48 2.291 2.222.373-.537 1.072-.955 1.883-1.127.363.899.73 1.799 1.097 2.698.251.62.752 1.376 1.668 1.35.277-.009.556-.097.824-.044.699.14.438.905.792 1.355.323.409 1.175.473 1.765.263.594-.213.991-.619 1.361-1.008.143.415 1.072.371 1.479.053.404-.319.535-.774.926-1.098.395-.327 1.305-.412 1.498-.006.249-.33.724-.573 1.246-.637.398.5.796.999 1.193 1.501.146-.666-.146-3.002.358-3.574l1.743 2.024c-.118-.587.569-1.107 1.299-1.399.733-.292 1.575-.465 2.19-.871.46-.303.752-.712 1.163-1.054 1.799-1.492 5.114-1.221 7.833-.821.612-.867 2.029 2.261 3.614 5.389 1.436 2.832 3.005 5.668 4.236 5.528.888.094 1.78.187 2.669.283.326-.584.596-.455 1.439-.66.413-.102 1.075-.359 1.401-.566.317-.199.631-.184.941-.167.321.018.634.035.939-.192.472-.351 3.446-1.662 4.133-1.618 5.938.376 9.667 2.248 15.54 2.964l1.936-.561 4.251 4.512c.239.254.491.514.857.672 1.019.432 2.287-.111 3.219-.631.24.213.488-.09.762-.394.251-.278.525-.555.839-.438l2.253-.873 3.617 1.498c1.516-.774 2.566-.251 2.582-1.571.55.23 1.352.084 1.675-.304 1.031-.117 2.134.134 2.871.654l1.28-.426c.103.111.199.227.298.338l-1.755-25.924V48.86a2.098 2.098 0 01-.339-.479z" fill="#fff"/></mask><g mask="url(#prefix__o)"><path d="M37.086 86.523H189.75v-.602H37.086v.602z" fill="#DEDEDC"/></g></g><mask id="prefix__p" style="mask-type:luminance" maskUnits="userSpaceOnUse" x="37" y="78" width="153" height="1"><path d="M37.083 78.24h152.809v.73H37.083v-.73z" fill="#fff"/></mask><g mask="url(#prefix__p)"><mask id="prefix__q" style="mask-type:luminance" maskUnits="userSpaceOnUse" x="30" y="43" width="169" height="96"><path d="M195.954 48.38c-.348-.688-.699-1.375-1.047-2.061-.146-.286-.342-.608-.752-.7-.814-.18-1.265.636-1.911 1.033-1.004.62-2.032 1.165-3.369 1.212-1.525.05-2.672 1.513-4.107 1.88-2.12.55-4.481.246-6.647-.2-.208.426-.625.388-1.075.35-.426-.038-.877-.073-1.206.283-.864-.38-1.386-1.116-1.302-1.831-.342-.026-.684-.059-1.025-.088-.712-.438.245-2.386-.442-2.839-.149-.099-.345-.151-.537-.19-.942-.198-2.07.576-3.198 1.35-1.047.715-2.094 1.434-3.001 1.378-1.809-.114-3.067-2.564-4.366-3.458-.504-.344-.982-.738-1.641-.916-.705-.187-1.56-.073-2.116.289-.174.344-.345.686-.519 1.034-2.272-1.046-5.084 1.293-7.591 2.015l-4.882 8.402c-.957.277-2.495.333-2.598-.395l-1.793.666c-.786-.762-2.591-.847-3.517-.163-.724.537-.839 1.337-1.076 2.062-.236.721-.789 1.518-1.824 1.661-.829-.695-2.439-2.646-3.679-2.4.081.438-.777.707-1.358.537-.581-.166-.941-.57-1.345-.908-.404-.339.127 7.657-.482 7.768-.478.085-.786.4-1.159.625-.854.52-2.219.561-3.132.097l-.155.33c-.14-.383-.243-.628-.296-.68l-.23-.223c-.764-.742-1.528-1.48-2.293-2.222-.373.534-1.069.955-1.88 1.127-.366-.9-.73-1.799-1.097-2.698-.251-.622-.752-1.376-1.668-1.35-.277.01-.557.097-.824.044-.702-.14-.438-.905-.795-1.355-.324-.409-1.172-.476-1.765-.263-.594.213-.988.62-1.358 1.008-.143-.415-1.075-.374-1.479-.053-.404.319-.538.771-.929 1.098-.392.327-1.306.412-1.498.006-.249.33-.721.572-1.246.637-.398-.503-.796-1.002-1.194-1.501-.146.666-.484 1.31-.991 1.883-.289-.336-.478-.096-.668.146-.189.243-.376.485-.668.146.118.587-.569 1.107-1.302 1.4-.73.291-1.572.467-2.188.87-.463.303-.752.712-1.162 1.054-1.799 1.492-5.789-.28-8.51-.68-1.166 1.65-2.832 4.368-5.417 4.66l-2.67-.28c-.326.581-1.025 1.057-1.864 1.262-.416.099-.879.146-1.205.353-.644.409-.42 1.215-1.016 1.659-.473.35-4.515-1.589-5.2-1.63-5.937-.376-9.004-1.317-14.877-2.032-.646.187-1.293.374-1.936.558l-4.254-4.51c-.236-.254-.488-.514-.855-.671-1.019-.436-2.287.108-3.219.63-.242-.216-.49.018-.77.252-.25.21-.52.42-.83.306l-2.253.873-3.617-1.498c-1.52.774-2.47 2.074-2.483 3.394-.553-.228-1.727-1.119-2.054-.73-1.031.117-1.852-.649-2.591-1.168l-1.284.426c-.1-.114-.195-.228-.295-.342v57.653c.14.152.255.321.336.482.348.686.699 1.375 1.05 2.062.146.286.342.607.752.698.814.181 1.265-.637 1.908-1.031.683-.424 1.616-.342 2.563-.26.445.038.895.076 1.321.061 1.526-.05 2.803-.8 4.239-1.168 2.119-.549 4.48-.242 6.646.201a9.962 9.962 0 011.638-2.362c.86.382 1.386 1.115 1.302 1.831l1.025.088c.709.438-.127 1.422.563 1.877.146.097.342.149.534.19 1.075.225 2.2.155 3.331.085.777-.047 1.557-.096 2.325-.047a9.648 9.648 0 014.791 1.653c.504.348.982.742 1.638.917.708.19 1.56.073 2.116-.286l.522-1.034c2.268 1.043 4.947-1.46 7.455-2.181l3.753-1.081c.96-.277 2.499-.333 2.601.394.597-.222 1.193-.447 1.79-.669.79.766 2.595.85 3.52.167.725-.537.84-1.338 1.076-2.062.236-.721.79-1.519 1.82-1.662.834.693 2.257 1.005 3.493.76-.08-.438.777-.707 1.362-.538.58.167.938.57 1.342.909.404.338 1.32 2.459 1.93 2.351.478-.085.786-.401 1.162-.625.851-.52 2.215-.561 3.129-.097l.158-.33c.137.383.24.628.296.681.074.073.152.149.229.222.762.741 1.526 1.48 2.291 2.222.373-.537 1.072-.955 1.883-1.127.363.899.73 1.799 1.097 2.698.251.619.752 1.376 1.668 1.35.277-.009.556-.097.824-.044.699.14.438.905.792 1.355.323.409 1.175.473 1.765.263.594-.214.991-.619 1.361-1.008.143.415 1.072.371 1.479.053.404-.319.535-.774.926-1.098.395-.328 1.305-.412 1.498-.006.249-.33.724-.573 1.246-.637.398.499.796.999 1.193 1.501.146-.666-.146-3.002.358-3.574l1.743 2.023c-.118-.587.569-1.106 1.299-1.398.733-.293 1.575-.465 2.19-.871.46-.304.752-.712 1.163-1.054 1.799-1.492 5.114-1.221 7.833-.821.612-.867 2.029 2.261 3.614 5.389 1.436 2.832 3.005 5.668 4.236 5.528.888.093 1.78.187 2.669.283.326-.584.596-.455 1.439-.66.413-.102 1.075-.359 1.401-.566.317-.199.631-.184.941-.167.321.018.634.035.939-.193.472-.35 3.446-1.661 4.133-1.617 5.938.376 9.667 2.248 15.54 2.964l1.936-.561 4.251 4.512c.239.254.491.514.857.672 1.019.432 2.287-.111 3.219-.631.24.213.488-.091.762-.394.251-.278.525-.555.839-.438l2.253-.874 3.617 1.499c1.516-.774 2.566-.251 2.582-1.572.55.231 1.352.085 1.675-.303 1.031-.117 2.134.134 2.871.654l1.28-.426c.103.111.199.227.298.338l-1.755-25.925V48.86a2.098 2.098 0 01-.339-.48z" fill="#fff"/></mask><g mask="url(#prefix__q)"><path d="M37.086 78.848H189.75v-.602H37.086v.602z" fill="#DEDEDC"/></g></g><mask id="prefix__r" style="mask-type:luminance" maskUnits="userSpaceOnUse" x="37" y="70" width="153" height="2"><path d="M37.083 70.562h152.809v.733H37.083v-.733z" fill="#fff"/></mask><g mask="url(#prefix__r)"><mask id="prefix__s" style="mask-type:luminance" maskUnits="userSpaceOnUse" x="30" y="43" width="169" height="96"><path d="M195.954 48.381c-.348-.69-.699-1.376-1.047-2.062-.146-.286-.342-.607-.752-.7-.814-.179-1.265.636-1.911 1.033-1.004.62-2.032 1.165-3.369 1.212-1.525.05-2.672 1.513-4.107 1.88-2.12.55-4.481.246-6.647-.2-.208.426-.625.388-1.075.35-.426-.038-.877-.073-1.206.283-.864-.38-1.386-1.115-1.302-1.831-.342-.026-.684-.058-1.025-.088-.712-.438.245-2.386-.442-2.838-.149-.1-.345-.152-.537-.19-.942-.199-2.07.575-3.198 1.35-1.047.715-2.094 1.433-3.001 1.378-1.809-.114-3.067-2.565-4.366-3.458-.504-.345-.982-.74-1.641-.917-.705-.187-1.56-.073-2.116.289l-.519 1.034c-2.272-1.046-5.084 1.294-7.591 2.015l-4.882 8.402c-.957.277-2.495.333-2.598-.394l-1.793.666c-.786-.763-2.591-.847-3.517-.164-.724.537-.839 1.338-1.076 2.062-.236.721-.789 1.518-1.824 1.662-.829-.695-2.439-2.646-3.679-2.401.081.438-.777.707-1.358.537-.581-.166-.941-.57-1.345-.908-.404-.339.127 7.658-.482 7.768-.478.085-.786.4-1.159.626-.854.52-2.219.56-3.132.096l-.155.33c-.14-.383-.243-.628-.296-.68a24.518 24.518 0 01-.23-.222l-2.293-2.223c-.373.534-1.069.955-1.88 1.127-.366-.9-.73-1.799-1.097-2.698-.251-.622-.752-1.376-1.668-1.35-.277.01-.557.097-.824.044-.702-.14-.438-.905-.795-1.355-.324-.409-1.172-.476-1.765-.263-.594.214-.988.62-1.358 1.008-.143-.415-1.075-.374-1.479-.053-.404.319-.538.771-.929 1.099-.392.327-1.306.411-1.498.005-.249.33-.721.573-1.246.637-.398-.502-.796-1.002-1.194-1.501-.146.666-.484 1.311-.991 1.884-.289-.336-.478-.097-.668.146-.189.242-.376.484-.668.146.118.587-.569 1.106-1.302 1.398-.73.293-1.572.468-2.188.87-.463.305-.752.713-1.162 1.055-1.799 1.492-5.789-.28-8.51-.68-1.166 1.65-2.832 4.369-5.417 4.66l-2.67-.28c-.326.581-1.025 1.057-1.864 1.262-.416.1-.879.146-1.205.353-.644.41-.42 1.215-1.016 1.66-.473.35-4.515-1.59-5.2-1.63-5.937-.377-9.004-1.318-14.877-2.033-.646.187-1.293.374-1.936.558l-4.254-4.51c-.236-.254-.488-.514-.855-.671-1.019-.435-2.287.108-3.219.63-.242-.215-.49.018-.77.252-.25.21-.52.42-.83.306l-2.253.874-3.617-1.499c-1.52.774-2.47 2.074-2.483 3.394-.553-.228-1.727-1.118-2.054-.73-1.031.117-1.852-.648-2.591-1.168l-1.284.426c-.1-.114-.195-.228-.295-.342v57.653c.14.152.255.321.336.482.348.686.699 1.376 1.05 2.062.146.286.342.607.752.698.814.181 1.265-.637 1.908-1.031.683-.424 1.616-.342 2.563-.26.445.038.895.076 1.321.061 1.526-.049 2.803-.8 4.239-1.168 2.119-.549 4.48-.242 6.646.202a9.947 9.947 0 011.638-2.363c.86.383 1.386 1.116 1.302 1.831l1.025.088c.709.438-.127 1.422.563 1.878.146.096.342.149.534.189 1.075.225 2.2.155 3.331.085.777-.047 1.557-.096 2.325-.047a9.658 9.658 0 014.791 1.653c.504.348.982.742 1.638.917.708.19 1.56.073 2.116-.286l.522-1.034c2.268 1.043 4.947-1.46 7.455-2.181l3.753-1.081c.96-.277 2.499-.333 2.601.395.597-.222 1.193-.447 1.79-.669.79.765 2.595.85 3.52.166.725-.537.84-1.337 1.076-2.062.236-.721.79-1.518 1.82-1.661.834.692 2.257 1.004 3.493.759-.08-.438.777-.707 1.362-.537.58.166.938.569 1.342.908.404.339 1.32 2.459 1.93 2.351.478-.085.786-.4 1.162-.625.851-.52 2.215-.561 3.129-.097l.158-.33c.137.383.24.628.296.681.074.073.152.149.229.222.762.742 1.526 1.481 2.291 2.222.373-.537 1.072-.955 1.883-1.127.363.9.73 1.799 1.097 2.699.251.619.752 1.375 1.668 1.349.277-.009.556-.097.824-.044.699.14.438.905.792 1.355.323.409 1.175.473 1.765.263.594-.213.991-.619 1.361-1.008.143.415 1.072.371 1.479.053.404-.318.535-.774.926-1.098.395-.327 1.305-.412 1.498-.006.249-.33.724-.572 1.246-.637.398.5.796.999 1.193 1.501.146-.665-.146-3.002.358-3.574l1.743 2.024c-.118-.587.569-1.107 1.299-1.399.733-.292 1.575-.465 2.19-.871.46-.303.752-.712 1.163-1.054 1.799-1.492 5.114-1.221 7.833-.82.612-.868 2.029 2.26 3.614 5.388 1.436 2.833 3.005 5.668 4.236 5.528.888.094 1.78.187 2.669.283.326-.584.596-.455 1.439-.66.413-.102 1.075-.359 1.401-.566.317-.199.631-.184.941-.167.321.018.634.035.939-.192.472-.351 3.446-1.662 4.133-1.618 5.938.376 9.667 2.248 15.54 2.964l1.936-.561 4.251 4.512c.239.254.491.514.857.672 1.019.432 2.287-.111 3.219-.631.24.213.488-.09.762-.394.251-.277.525-.555.839-.438l2.253-.873 3.617 1.498c1.516-.774 2.566-.251 2.582-1.571.55.23 1.352.084 1.675-.304 1.031-.117 2.134.134 2.871.654l1.28-.426c.103.111.199.228.298.339l-1.755-25.925V48.86a2.098 2.098 0 01-.339-.479z" fill="#fff"/></mask><g mask="url(#prefix__s)"><path d="M37.086 71.173H189.75v-.602H37.086v.602z" fill="#DEDEDC"/></g></g><mask id="prefix__t" style="mask-type:luminance" maskUnits="userSpaceOnUse" x="37" y="62" width="153" height="2"><path d="M37.083 62.887h152.809v.73H37.083v-.73z" fill="#fff"/></mask><g mask="url(#prefix__t)"><mask id="prefix__u" style="mask-type:luminance" maskUnits="userSpaceOnUse" x="30" y="43" width="169" height="96"><path d="M195.954 48.381c-.348-.689-.699-1.375-1.047-2.062-.146-.286-.342-.607-.752-.7-.814-.179-1.265.636-1.911 1.033-1.004.62-2.032 1.166-3.369 1.212-1.525.05-2.672 1.513-4.107 1.881-2.12.55-4.481.245-6.647-.201-.208.426-.625.388-1.075.35-.426-.038-.877-.073-1.206.283-.864-.38-1.386-1.115-1.302-1.83-.342-.027-.684-.06-1.025-.089-.712-.438.245-2.386-.442-2.838-.149-.1-.345-.152-.537-.19-.942-.199-2.07.575-3.198 1.35-1.047.715-2.094 1.433-3.001 1.378-1.809-.114-3.067-2.564-4.366-3.458-.504-.345-.982-.739-1.641-.917-.705-.187-1.56-.073-2.116.289l-.519 1.034c-2.272-1.046-5.084 1.294-7.591 2.015l-4.882 8.402c-.957.278-2.495.333-2.598-.394l-1.793.666c-.786-.762-2.591-.847-3.517-.164-.724.538-.839 1.338-1.076 2.062-.236.721-.789 1.519-1.824 1.662-.829-.695-2.439-2.646-3.679-2.4.081.437-.777.706-1.358.536-.581-.166-.941-.569-1.345-.908-.404-.339.127 7.658-.482 7.769-.478.084-.786.4-1.159.625-.854.52-2.219.56-3.132.096l-.155.33c-.14-.383-.243-.628-.296-.68a25.862 25.862 0 01-.23-.222l-2.293-2.223c-.373.535-1.069.955-1.88 1.127-.366-.9-.73-1.799-1.097-2.698-.251-.622-.752-1.376-1.668-1.35-.277.01-.557.097-.824.045-.702-.14-.438-.906-.795-1.356-.324-.408-1.172-.476-1.765-.262-.594.213-.988.619-1.358 1.007-.143-.415-1.075-.374-1.479-.053-.404.319-.538.772-.929 1.099-.392.327-1.306.411-1.498.005-.249.33-.721.573-1.246.637-.398-.502-.796-1.002-1.194-1.501-.146.666-.484 1.311-.991 1.884-.289-.336-.478-.097-.668.146-.189.242-.376.484-.668.146.118.587-.569 1.107-1.302 1.399-.73.292-1.572.467-2.188.87-.463.304-.752.712-1.162 1.054-1.799 1.493-5.789-.28-8.51-.68-1.166 1.65-2.832 4.369-5.417 4.66l-2.67-.28c-.326.582-1.025 1.058-1.864 1.262-.416.1-.879.146-1.205.353-.644.41-.42 1.215-1.016 1.66-.473.35-4.515-1.59-5.2-1.63-5.937-.377-9.004-1.317-14.877-2.033-.646.187-1.293.374-1.936.558l-4.254-4.51c-.236-.253-.488-.513-.855-.671-1.019-.435-2.287.108-3.219.63-.242-.215-.49.018-.77.252-.25.21-.52.42-.83.307l-2.253.873-3.617-1.498c-1.52.773-2.47 2.073-2.483 3.393-.553-.228-1.727-1.118-2.054-.73-1.031.117-1.852-.648-2.591-1.168l-1.284.426c-.1-.114-.195-.227-.295-.341v57.652c.14.152.255.322.336.482.348.686.699 1.376 1.05 2.062.146.286.342.607.752.698.814.181 1.265-.637 1.908-1.031.683-.423 1.616-.342 2.563-.26.445.038.895.076 1.321.061 1.526-.049 2.803-.8 4.239-1.168 2.119-.549 4.48-.242 6.646.202a9.947 9.947 0 011.638-2.363c.86.383 1.386 1.116 1.302 1.831l1.025.088c.709.438-.127 1.422.563 1.878.146.096.342.149.534.19 1.075.224 2.2.154 3.331.084.777-.046 1.557-.096 2.325-.046a9.648 9.648 0 014.791 1.653c.504.347.982.741 1.638.917.708.189 1.56.073 2.116-.287l.522-1.033c2.268 1.042 4.947-1.461 7.455-2.182l3.753-1.081c.96-.277 2.499-.333 2.601.395.597-.222 1.193-.447 1.79-.669.79.765 2.595.85 3.52.166.725-.537.84-1.337 1.076-2.062.236-.721.79-1.518 1.82-1.661.834.692 2.257 1.004 3.493.759-.08-.438.777-.707 1.362-.537.58.166.938.569 1.342.908.404.339 1.32 2.459 1.93 2.351.478-.085.786-.4 1.162-.625.851-.52 2.215-.561 3.129-.096l.158-.33c.137.382.24.627.296.68.074.073.152.149.229.222.762.742 1.526 1.481 2.291 2.222.373-.537 1.072-.955 1.883-1.127.363.9.73 1.799 1.097 2.699.251.619.752 1.375 1.668 1.349.277-.009.556-.096.824-.044.699.14.438.905.792 1.355.323.409 1.175.473 1.765.263.594-.213.991-.619 1.361-1.008.143.415 1.072.371 1.479.053.404-.318.535-.774.926-1.098.395-.327 1.305-.412 1.498-.006.249-.33.724-.572 1.246-.637.398.5.796.999 1.193 1.502.146-.666-.146-3.003.358-3.575l1.743 2.024c-.118-.587.569-1.107 1.299-1.399.733-.292 1.575-.464 2.19-.87.46-.304.752-.713 1.163-1.055 1.799-1.492 5.114-1.22 7.833-.82.612-.868 2.029 2.26 3.614 5.388 1.436 2.833 3.005 5.668 4.236 5.528.888.094 1.78.187 2.669.284.326-.584.596-.456 1.439-.66.413-.103 1.075-.36 1.401-.567.317-.199.631-.184.941-.166.321.017.634.035.939-.193.472-.351 3.446-1.662 4.133-1.618 5.938.377 9.667 2.249 15.54 2.964l1.936-.561 4.251 4.513c.239.254.491.514.857.671 1.019.432 2.287-.111 3.219-.631.24.214.488-.09.762-.394.251-.277.525-.555.839-.438l2.253-.873 3.617 1.498c1.516-.774 2.566-.251 2.582-1.571.55.231 1.352.085 1.675-.304 1.031-.117 2.134.134 2.871.654l1.28-.426c.103.111.199.228.298.339l-1.755-25.925V48.86a2.1 2.1 0 01-.339-.479z" fill="#fff"/></mask><g mask="url(#prefix__u)"><path d="M37.086 63.498H189.75v-.602H37.086v.602z" fill="#DEDEDC"/></g></g><mask id="prefix__v" style="mask-type:luminance" maskUnits="userSpaceOnUse" x="37" y="55" width="153" height="1"><path d="M37.083 55.21h152.809v.633H37.083v-.634z" fill="#fff"/></mask><g mask="url(#prefix__v)"><mask id="prefix__w" style="mask-type:luminance" maskUnits="userSpaceOnUse" x="30" y="43" width="169" height="96"><path d="M195.954 48.381c-.348-.69-.699-1.376-1.047-2.062-.146-.286-.342-.607-.752-.7-.814-.179-1.265.636-1.911 1.033-1.004.62-2.032 1.165-3.369 1.212-1.525.05-2.672 1.513-4.107 1.88-2.12.55-4.481.246-6.647-.2-.208.426-.625.388-1.075.35-.426-.038-.877-.073-1.206.283-.864-.38-1.386-1.115-1.302-1.831-.342-.026-.684-.058-1.025-.088-.712-.438.245-2.386-.442-2.838-.149-.1-.345-.152-.537-.19-.942-.199-2.07.575-3.198 1.35-1.047.715-2.094 1.433-3.001 1.378-1.809-.114-3.067-2.565-4.366-3.458-.504-.345-.982-.74-1.641-.917-.705-.187-1.56-.073-2.116.289l-.519 1.034c-2.272-1.046-5.084 1.294-7.591 2.015l-4.882 8.402c-.957.277-2.495.333-2.598-.394l-1.793.666c-.786-.763-2.591-.847-3.517-.164-.724.537-.839 1.338-1.076 2.062-.236.721-.789 1.518-1.824 1.662-.829-.695-2.439-2.646-3.679-2.401.081.438-.777.707-1.358.537-.581-.166-.941-.57-1.345-.908-.404-.339.127 7.658-.482 7.768-.478.085-.786.4-1.159.626-.854.52-2.219.56-3.132.096l-.155.33c-.14-.383-.243-.628-.296-.68a24.518 24.518 0 01-.23-.222l-2.293-2.223c-.373.534-1.069.955-1.88 1.127-.366-.9-.73-1.799-1.097-2.698-.251-.622-.752-1.376-1.668-1.35-.277.01-.557.097-.824.044-.702-.14-.438-.905-.795-1.355-.324-.409-1.172-.476-1.765-.263-.594.214-.988.62-1.358 1.008-.143-.415-1.075-.374-1.479-.053-.404.319-.538.771-.929 1.099-.392.327-1.306.411-1.498.005-.249.33-.721.573-1.246.637-.398-.502-.796-1.002-1.194-1.501-.146.666-.484 1.311-.991 1.884-.289-.336-.478-.097-.668.146-.189.242-.376.484-.668.146.118.587-.569 1.106-1.302 1.398-.73.293-1.572.468-2.188.87-.463.305-.752.713-1.162 1.055-1.799 1.492-5.789-.28-8.51-.68-1.166 1.65-2.832 4.369-5.417 4.66l-2.67-.28c-.326.581-1.025 1.057-1.864 1.262-.416.1-.879.146-1.205.353-.644.41-.42 1.215-1.016 1.66-.473.35-4.515-1.59-5.2-1.63-5.937-.377-9.004-1.318-14.877-2.033-.646.187-1.293.374-1.936.558l-4.254-4.51c-.236-.254-.488-.514-.855-.671-1.019-.435-2.287.108-3.219.63-.242-.215-.49.018-.77.252-.25.21-.52.42-.83.306l-2.253.874-3.617-1.499c-1.52.774-2.47 2.074-2.483 3.394-.553-.228-1.727-1.118-2.054-.73-1.031.117-1.852-.648-2.591-1.168l-1.284.426c-.1-.114-.195-.228-.295-.342v57.653c.14.152.255.321.336.482.348.686.699 1.376 1.05 2.062.146.286.342.607.752.698.814.181 1.265-.637 1.908-1.031.683-.424 1.616-.342 2.563-.26.445.038.895.076 1.321.061 1.526-.049 2.803-.8 4.239-1.168 2.119-.549 4.48-.242 6.646.202a9.947 9.947 0 011.638-2.363c.86.383 1.386 1.116 1.302 1.831l1.025.088c.709.438-.127 1.422.563 1.878.146.096.342.149.534.189 1.075.225 2.2.155 3.331.085.777-.047 1.557-.096 2.325-.047a9.658 9.658 0 014.791 1.653c.504.348.982.742 1.638.917.708.19 1.56.073 2.116-.286l.522-1.034c2.268 1.043 4.947-1.46 7.455-2.181l3.753-1.081c.96-.277 2.499-.333 2.601.395.597-.222 1.193-.447 1.79-.669.79.765 2.595.85 3.52.166.725-.537.84-1.337 1.076-2.062.236-.721.79-1.518 1.82-1.661.834.692 2.257 1.004 3.493.759-.08-.438.777-.707 1.362-.537.58.166.938.569 1.342.908.404.339 1.32 2.459 1.93 2.351.478-.085.786-.4 1.162-.625.851-.52 2.215-.561 3.129-.097l.158-.33c.137.383.24.628.296.681.074.073.152.149.229.222.762.742 1.526 1.481 2.291 2.222.373-.537 1.072-.955 1.883-1.127.363.9.73 1.799 1.097 2.699.251.619.752 1.375 1.668 1.349.277-.009.556-.097.824-.044.699.14.438.905.792 1.355.323.409 1.175.473 1.765.263.594-.213.991-.619 1.361-1.008.143.415 1.072.371 1.479.053.404-.318.535-.774.926-1.098.395-.327 1.305-.412 1.498-.006.249-.33.724-.572 1.246-.637.398.5.796.999 1.193 1.501.146-.665-.146-3.002.358-3.574l1.743 2.024c-.118-.587.569-1.107 1.299-1.399.733-.292 1.575-.465 2.19-.871.46-.303.752-.712 1.163-1.054 1.799-1.492 5.114-1.221 7.833-.82.612-.868 2.029 2.26 3.614 5.388 1.436 2.833 3.005 5.668 4.236 5.528.888.094 1.78.187 2.669.283.326-.584.596-.455 1.439-.66.413-.102 1.075-.359 1.401-.566.317-.199.631-.184.941-.167.321.018.634.035.939-.192.472-.351 3.446-1.662 4.133-1.618 5.938.376 9.667 2.248 15.54 2.964l1.936-.561 4.251 4.512c.239.254.491.514.857.672 1.019.432 2.287-.111 3.219-.631.24.213.488-.09.762-.394.251-.277.525-.555.839-.438l2.253-.873 3.617 1.498c1.516-.774 2.566-.251 2.582-1.571.55.23 1.352.084 1.675-.304 1.031-.117 2.134.134 2.871.654l1.28-.426c.103.111.199.228.298.339l-1.755-25.925V48.86a2.098 2.098 0 01-.339-.479z" fill="#fff"/></mask><g mask="url(#prefix__w)"><path d="M189.749 55.823H37.086v-.602H189.75v.602z" fill="#DEDEDC"/></g></g><mask id="prefix__x" style="mask-type:luminance" maskUnits="userSpaceOnUse" x="37" y="47" width="153" height="2"><path d="M37.083 47.534h152.809v.73H37.083v-.73z" fill="#fff"/></mask><g mask="url(#prefix__x)"><mask id="prefix__y" style="mask-type:luminance" maskUnits="userSpaceOnUse" x="30" y="43" width="169" height="96"><path d="M195.954 48.381c-.348-.689-.699-1.375-1.047-2.062-.146-.286-.342-.607-.752-.7-.814-.179-1.265.636-1.911 1.033-1.004.62-2.032 1.166-3.369 1.212-1.525.05-2.672 1.513-4.107 1.881-2.12.55-4.481.245-6.647-.201-.208.426-.625.388-1.075.35-.426-.038-.877-.073-1.206.283-.864-.38-1.386-1.115-1.302-1.83-.342-.027-.684-.06-1.025-.089-.712-.438.245-2.386-.442-2.838-.149-.1-.345-.152-.537-.19-.942-.199-2.07.575-3.198 1.35-1.047.715-2.094 1.433-3.001 1.378-1.809-.114-3.067-2.564-4.366-3.458-.504-.345-.982-.739-1.641-.917-.705-.187-1.56-.073-2.116.289l-.519 1.034c-2.272-1.046-5.084 1.294-7.591 2.015l-4.882 8.402c-.957.278-2.495.333-2.598-.394l-1.793.666c-.786-.762-2.591-.847-3.517-.164-.724.538-.839 1.338-1.076 2.062-.236.721-.789 1.519-1.824 1.662-.829-.695-2.439-2.646-3.679-2.4.081.437-.777.706-1.358.536-.581-.166-.941-.569-1.345-.908-.404-.339.127 7.658-.482 7.769-.478.084-.786.4-1.159.625-.854.52-2.219.56-3.132.096l-.155.33c-.14-.383-.243-.628-.296-.68a25.862 25.862 0 01-.23-.222l-2.293-2.223c-.373.535-1.069.955-1.88 1.127-.366-.9-.73-1.799-1.097-2.698-.251-.622-.752-1.376-1.668-1.35-.277.01-.557.097-.824.045-.702-.14-.438-.906-.795-1.356-.324-.408-1.172-.476-1.765-.262-.594.213-.988.619-1.358 1.007-.143-.415-1.075-.374-1.479-.053-.404.319-.538.772-.929 1.099-.392.327-1.306.411-1.498.005-.249.33-.721.573-1.246.637-.398-.502-.796-1.002-1.194-1.501-.146.666-.484 1.311-.991 1.884-.289-.336-.478-.097-.668.146-.189.242-.376.484-.668.146.118.587-.569 1.107-1.302 1.399-.73.292-1.572.467-2.188.87-.463.304-.752.712-1.162 1.054-1.799 1.493-5.789-.28-8.51-.68-1.166 1.65-2.832 4.369-5.417 4.66l-2.67-.28c-.326.582-1.025 1.058-1.864 1.262-.416.1-.879.146-1.205.353-.644.41-.42 1.215-1.016 1.66-.473.35-4.515-1.59-5.2-1.63-5.937-.377-9.004-1.317-14.877-2.033-.646.187-1.293.374-1.936.558l-4.254-4.51c-.236-.253-.488-.513-.855-.671-1.019-.435-2.287.108-3.219.63-.242-.215-.49.018-.77.252-.25.21-.52.42-.83.307l-2.253.873-3.617-1.498c-1.52.773-2.47 2.073-2.483 3.393-.553-.228-1.727-1.118-2.054-.73-1.031.117-1.852-.648-2.591-1.168l-1.284.426c-.1-.114-.195-.227-.295-.341v57.652c.14.152.255.322.336.482.348.686.699 1.376 1.05 2.062.146.286.342.607.752.698.814.181 1.265-.637 1.908-1.031.683-.423 1.616-.342 2.563-.26.445.038.895.076 1.321.061 1.526-.049 2.803-.8 4.239-1.168 2.119-.549 4.48-.242 6.646.202a9.947 9.947 0 011.638-2.363c.86.383 1.386 1.116 1.302 1.831l1.025.088c.709.438-.127 1.422.563 1.878.146.096.342.149.534.19 1.075.224 2.2.154 3.331.084.777-.046 1.557-.096 2.325-.046a9.648 9.648 0 014.791 1.653c.504.347.982.741 1.638.917.708.189 1.56.073 2.116-.287l.522-1.033c2.268 1.042 4.947-1.461 7.455-2.182l3.753-1.081c.96-.277 2.499-.333 2.601.395.597-.222 1.193-.447 1.79-.669.79.765 2.595.85 3.52.166.725-.537.84-1.337 1.076-2.062.236-.721.79-1.518 1.82-1.661.834.692 2.257 1.004 3.493.759-.08-.438.777-.707 1.362-.537.58.166.938.569 1.342.908.404.339 1.32 2.459 1.93 2.351.478-.085.786-.4 1.162-.625.851-.52 2.215-.561 3.129-.096l.158-.33c.137.382.24.627.296.68.074.073.152.149.229.222.762.742 1.526 1.481 2.291 2.222.373-.537 1.072-.955 1.883-1.127.363.9.73 1.799 1.097 2.699.251.619.752 1.375 1.668 1.349.277-.009.556-.096.824-.044.699.14.438.905.792 1.355.323.409 1.175.473 1.765.263.594-.213.991-.619 1.361-1.008.143.415 1.072.371 1.479.053.404-.318.535-.774.926-1.098.395-.327 1.305-.412 1.498-.006.249-.33.724-.572 1.246-.637.398.5.796.999 1.193 1.502.146-.666-.146-3.003.358-3.575l1.743 2.024c-.118-.587.569-1.107 1.299-1.399.733-.292 1.575-.464 2.19-.87.46-.304.752-.713 1.163-1.055 1.799-1.492 5.114-1.22 7.833-.82.612-.868 2.029 2.26 3.614 5.388 1.436 2.833 3.005 5.668 4.236 5.528.888.094 1.78.187 2.669.284.326-.584.596-.456 1.439-.66.413-.103 1.075-.36 1.401-.567.317-.199.631-.184.941-.166.321.017.634.035.939-.193.472-.351 3.446-1.662 4.133-1.618 5.938.377 9.667 2.249 15.54 2.964l1.936-.561 4.251 4.513c.239.254.491.514.857.671 1.019.432 2.287-.111 3.219-.631.24.214.488-.09.762-.394.251-.277.525-.555.839-.438l2.253-.873 3.617 1.498c1.516-.774 2.566-.251 2.582-1.571.55.231 1.352.085 1.675-.304 1.031-.117 2.134.134 2.871.654l1.28-.426c.103.111.199.228.298.339l-1.755-25.925V48.86a2.1 2.1 0 01-.339-.479z" fill="#fff"/></mask><g mask="url(#prefix__y)"><path d="M189.749 48.148H37.086v-.602H189.75v.602z" fill="#DEDEDC"/></g></g><mask id="prefix__z" style="mask-type:luminance" maskUnits="userSpaceOnUse" x="162" y="104" width="46" height="42"><path d="M162.049 104.439h45.343v40.948h-45.343v-40.948z" fill="#fff"/></mask><g mask="url(#prefix__z)"><path d="M171.816 144.861l-9.043-9.155 2.552-2.229c2.159.216 4.316.456 6.463.716l1.936-.558c1.417 1.504 2.834 3.005 4.251 4.512.227.237.463.485.798.643l-6.957 6.071zm25.524-22.274l-.867-12.83v-3.46l2.051-1.791 9.045 9.153-10.229 8.928z" fill="#DAB98D" fill-opacity=".85"/></g><path d="M179.472 138.527c-.282 0-.559-.047-.82-.158-.367-.158-.618-.418-.858-.672l-4.25-4.512-1.936.561c-1.859-.228-3.502-.569-5.072-.943l.265-.228h19.532l-6.82 5.952h-.041zm7.551-6.554h-19.536l8.107-7.076h14.155v-.599h-13.465l8.104-7.076h5.361v-.599h-4.671l11.215-9.786v3.461l.867 12.829-10.137 8.846z" fill="#DAB98D" fill-opacity=".85"/><mask id="prefix__A" style="mask-type:luminance" maskUnits="userSpaceOnUse" x="18" y="53" width="46" height="42"><path d="M18.392 53.6H63.41v41.12H18.392V53.6z" fill="#fff"/></mask><g mask="url(#prefix__A)"><path d="M27.488 93.993l-9.046-9.156 11.93-10.411v17.05l-2.884 2.517zm27.388-25.846l-4.254-4.51c-.236-.253-.488-.513-.855-.671a2.078 2.078 0 00-.82-.158c-.823 0-1.706.4-2.399.789a.313.313 0 00-.205-.085c-.18 0-.364.17-.566.336-.04.038-.083.073-.13.108a5.927 5.927 0 00-.799-.365l-2.252.876c-.184-.079-.364-.152-.547-.228l12.146-10.604 9.043 9.156-5.621 4.906a33.37 33.37 0 00-.805-.108c-.646.187-1.293.374-1.936.558z" fill="#DAB98D" fill-opacity=".85"/></g><path d="M30.371 91.475v-17.05l11.27-9.832c.352.143.703.289 1.054.435l2.253-.873a.498.498 0 00.177.032c.186 0 .36-.105.522-.231.047-.035.09-.07.13-.108.203-.167.386-.336.566-.336.068 0 .137.026.205.085.693-.389 1.576-.789 2.399-.789.283 0 .56.047.82.158.367.158.619.418.855.672l4.254 4.509c.643-.184 1.29-.371 1.936-.558.27.032.54.07.805.108l-3.291 2.874h-17.24v.601h16.55l-8.107 7.074h-8.443v.601h7.756l-14.47 12.628zm16.36-27.977h3.757c-.199-.208-.422-.404-.72-.532a2.572 2.572 0 00-.193-.07h-1.343c-.525.123-1.047.356-1.5.602z" fill="#DAB98D" fill-opacity=".85"/><mask id="prefix__B" maskUnits="userSpaceOnUse" x="36.392" y="61.387" width="90" height="53" fill="#000"><path fill="#fff" d="M36.392 61.387h90v53h-90z"/><path d="M42.912 82.187h37.04v5.24h-37.04v-5.24zm48.44-13.88h25.16v4.44h-25.16v-4.44zm4 7.72h16.84v3.64h-16.84v-3.64zm-.84 6.16h18.48v3.8h-18.48v-3.8zm-6.04-13.88h4.76v13.96c0 1.627-.067 3.413-.2 5.36a49.67 49.67 0 01-.68 5.88 34.055 34.055 0 01-1.52 5.72 19.36 19.36 0 01-2.64 4.92c-.267-.293-.64-.64-1.12-1.04-.48-.4-.973-.787-1.48-1.16a11.397 11.397 0 00-1.28-.84 16.721 16.721 0 002.28-4.32c.56-1.573.973-3.187 1.24-4.84.267-1.68.44-3.347.52-5 .08-1.653.12-3.213.12-4.68v-13.96zm26.2 0h4.8v30.36c0 1.227-.16 2.173-.48 2.84-.293.693-.827 1.24-1.6 1.64-.773.347-1.747.56-2.92.64-1.173.107-2.64.16-4.4.16-.08-.64-.267-1.4-.56-2.28-.293-.88-.6-1.613-.92-2.2l2.08.08h3.04c.373 0 .627-.067.76-.2.133-.16.2-.4.2-.72v-30.32zm-13.32 5.04h4.56v10.88h-4.56v-10.88zm-2.96 14.92h13.08v10.92h-13.08v-3.64h8.64v-3.64h-8.64v-3.64zm-2.4 0h4.32v13.12h-4.32v-13.12z"/></mask><path d="M42.912 82.187h37.04v5.24h-37.04v-5.24zm48.44-13.88h25.16v4.44h-25.16v-4.44zm4 7.72h16.84v3.64h-16.84v-3.64zm-.84 6.16h18.48v3.8h-18.48v-3.8zm-6.04-13.88h4.76v13.96c0 1.627-.067 3.413-.2 5.36a49.67 49.67 0 01-.68 5.88 34.055 34.055 0 01-1.52 5.72 19.36 19.36 0 01-2.64 4.92c-.267-.293-.64-.64-1.12-1.04-.48-.4-.973-.787-1.48-1.16a11.397 11.397 0 00-1.28-.84 16.721 16.721 0 002.28-4.32c.56-1.573.973-3.187 1.24-4.84.267-1.68.44-3.347.52-5 .08-1.653.12-3.213.12-4.68v-13.96zm26.2 0h4.8v30.36c0 1.227-.16 2.173-.48 2.84-.293.693-.827 1.24-1.6 1.64-.773.347-1.747.56-2.92.64-1.173.107-2.64.16-4.4.16-.08-.64-.267-1.4-.56-2.28-.293-.88-.6-1.613-.92-2.2l2.08.08h3.04c.373 0 .627-.067.76-.2.133-.16.2-.4.2-.72v-30.32zm-13.32 5.04h4.56v10.88h-4.56v-10.88zm-2.96 14.92h13.08v10.92h-13.08v-3.64h8.64v-3.64h-8.64v-3.64zm-2.4 0h4.32v13.12h-4.32v-13.12z" fill="#901717"/><path d="M42.912 82.187v-6h-6v6h6zm37.04 0h6v-6h-6v6zm0 5.24v6h6v-6h-6zm-37.04 0h-6v6h6v-6zm0-5.24v6h37.04v-12h-37.04v6zm37.04 0h-6v5.24h12v-5.24h-6zm0 5.24v-6h-37.04v12h37.04v-6zm-37.04 0h6v-5.24h-12v5.24h6zm48.44-19.12v-6h-6v6h6zm25.16 0h6v-6h-6v6zm0 4.44v6h6v-6h-6zm-25.16 0h-6v6h6v-6zm4 3.28v-6h-6v6h6zm16.84 0h6v-6h-6v6zm0 3.64v6h6v-6h-6zm-16.84 0h-6v6h6v-6zm-.84 2.52v-6h-6v6h6zm18.48 0h6v-6h-6v6zm0 3.8v6h6v-6h-6zm-18.48 0h-6v6h6v-6zm-6.04-17.68v-6h-6v6h6zm4.76 0h6v-6h-6v6zm-.2 19.32l-5.986-.41-.003.04-.002.042 5.991.328zm-.68 5.88l-5.91-1.038 5.91 1.038zm-1.52 5.72l5.632 2.07.004-.013.005-.013-5.64-2.044zm-2.64 4.92l-4.44 4.036 4.899 5.388 4.352-5.838-4.81-3.586zm-1.12-1.04l3.841-4.61-3.84 4.61zm-1.48-1.16l3.56-4.83-3.56 4.83zm-1.28-.84l-4.835-3.552-4.087 5.562 6.078 3.273 2.844-5.283zm2.28-4.32l5.653 2.012-5.653-2.012zm1.24-4.84l5.924.955v-.007l.002-.007-5.926-.941zm26.84-23.64v-6h-6v6h6zm4.8 0h6v-6h-6v6zm-.48 33.2l-5.409-2.596-.061.127-.056.131 5.526 2.338zm-1.6 1.64l2.454 5.475.154-.069.149-.077-2.757-5.329zm-2.92.64l-.408-5.986-.068.004-.067.007.543 5.975zm-4.4.16l-5.954.744.657 5.256h5.297v-6zm-.56-2.28l5.692-1.897-5.692 1.897zm-.92-2.2l.231-5.996-10.557-.406 5.059 9.275 5.267-2.873zm2.08.08l-.231 5.996.116.004h.115v-6zm3.8-.2l4.243 4.243.192-.193.174-.209-4.609-3.841zm-13.12-26v-6h-6v6h6zm4.56 0h6v-6h-6v6zm0 10.88v6h6v-6h-6zm-4.56 0h-6v6h6v-6zm-2.96 4.04v-6h-6v6h6zm13.08 0h6v-6h-6v6zm0 10.92v6h6v-6h-6zm-13.08 0h-6v6h6v-6zm0-3.64v-6h-6v6h6zm8.64 0v6h6v-6h-6zm0-3.64h6v-6h-6v6zm-8.64 0h-6v6h6v-6zm-2.4-3.64v-6h-6v6h6zm4.32 0h6v-6h-6v6zm0 13.12v6h6v-6h-6zm-4.32 0h-6v6h6v-6zm-4.64-33.08v6h25.16v-12h-25.16v6zm25.16 0h-6v4.44h12v-4.44h-6zm0 4.44v-6h-25.16v12h25.16v-6zm-25.16 0h6v-4.44h-12v4.44h6zm4 3.28v6h16.84v-12h-16.84v6zm16.84 0h-6v3.64h12v-3.64h-6zm0 3.64v-6h-16.84v12h16.84v-6zm-16.84 0h6v-3.64h-12v3.64h6zm-.84 2.52v6h18.48v-12h-18.48v6zm18.48 0h-6v3.8h12v-3.8h-6zm0 3.8v-6h-18.48v12h18.48v-6zm-18.48 0h6v-3.8h-12v3.8h6zm-6.04-17.68v6h4.76v-12h-4.76v6zm4.76 0h-6v13.96h12v-13.96h-6zm0 13.96h-6c0 1.466-.06 3.114-.186 4.95l5.986.41 5.986.41c.141-2.057.214-3.983.214-5.77h-6zm-.2 5.36l-5.99-.328a43.686 43.686 0 01-.6 5.17l5.91 1.038 5.91 1.038c.386-2.201.641-4.399.761-6.59l-5.99-.328zm-.68 5.88l-5.91-1.038a28.057 28.057 0 01-1.251 4.714l5.641 2.044 5.641 2.044a40.058 40.058 0 001.789-6.726l-5.91-1.038zm-1.52 5.72l-5.631-2.07a13.352 13.352 0 01-1.82 3.404l4.811 3.586 4.81 3.586a25.346 25.346 0 003.462-6.436l-5.632-2.07zm-2.64 4.92l4.44-4.036a17.318 17.318 0 00-1.719-1.613l-3.84 4.609-3.842 4.609c.175.146.306.261.398.348.096.088.13.127.123.119l4.44-4.036zm-1.12-1.04l3.841-4.61a37.522 37.522 0 00-1.762-1.38l-3.559 4.83-3.56 4.83c.412.303.811.616 1.199.939l3.841-4.609zm-1.48-1.16l3.56-4.83a17.147 17.147 0 00-1.995-1.293l-2.845 5.283-2.844 5.283c-.017-.009.024.012.132.083.105.069.248.168.433.304l3.56-4.83zm-1.28-.84l4.835 3.552a22.708 22.708 0 003.098-5.86l-5.653-2.012-5.653-2.012a10.723 10.723 0 01-1.462 2.78l4.835 3.552zm2.28-4.32l5.653 2.012a33.426 33.426 0 001.51-5.897l-5.923-.955-5.923-.955a21.426 21.426 0 01-.97 3.783l5.653 2.012zm1.24-4.84l5.926.94c.3-1.889.496-3.773.587-5.65l-5.993-.29-5.993-.29c-.07 1.43-.22 2.879-.453 4.35l5.926.94zm.52-5l5.993.29c.084-1.738.127-3.395.127-4.97h-12c0 1.359-.037 2.821-.113 4.39l5.993.29zm.12-4.68h6v-13.96h-12v13.96h6zm26.2-13.96v6h4.8v-12h-4.8v6zm4.8 0h-6v30.36h12v-30.36h-6zm0 30.36h-6c0 .178-.006.319-.014.427a2.258 2.258 0 01-.022.203c-.005.03-.003.008.015-.053.018-.062.058-.179.132-.333l5.409 2.596 5.409 2.596c.884-1.841 1.071-3.83 1.071-5.436h-6zm-.48 2.84l-5.526-2.338c.149-.352.364-.668.611-.922.24-.246.453-.375.559-.43l2.756 5.33 2.757 5.329c1.812-.937 3.446-2.45 4.369-4.631l-5.526-2.338zm-1.6 1.64l-2.454-5.475c.047-.022.012 0-.14.034a5.16 5.16 0 01-.734.095l.408 5.986.408 5.986c1.626-.111 3.349-.426 4.966-1.151l-2.454-5.475zm-2.92.64l-.543-5.975c-.928.084-2.199.135-3.857.135v12c1.862 0 3.525-.056 4.943-.185l-.543-5.975zm-4.4.16l5.954-.744c-.145-1.161-.453-2.326-.822-3.433l-5.692 1.897-5.692 1.897c.218.653.284 1.008.298 1.127l5.954-.744zm-.56-2.28l5.692-1.897c-.366-1.098-.803-2.184-1.345-3.176l-5.267 2.873-5.267 2.873c.098.181.274.562.495 1.224l5.692-1.897zm-.92-2.2l-.231 5.996 2.08.08.231-5.996.231-5.996-2.08-.08-.231 5.996zm2.08.08v6H112.552v-12H110.672v6zm1.88 0v6H113.712v-12h-.004-.001-.004-.001-.003-.001-.004-.004-.001-.003-.001-.003-.004-.004-.003-.001-.003-.004-.003-.004-.003-.003-.004-.003-.003-.003-.003-.003-.003-.003-.003-.003-.003-.003-.003-.003-.003-.005-.003-.003-.005-.003-.005-.003-.002-.003-.005-.005-.005-.005-.005-.005-.002-.005-.007-.005-.002-.007-.007-.002-.007-.002-.007-.002-.002H113.476h-.002H113.463h-.002-.002H113.444h-.002-.002-.002-.002H113.372h-.002-.002-.002-.002-.017-.002-.015-.002-.011-.002-.011-.011-.011H113.273 113.264 113.255h-.007-.016-.007-.007-.007-.012-.007-.012-.017H113.141h-.005-.005-.02-.005-.005-.023-.018-.021H112.983 112.928 112.914 112.88 112.857 112.825 112.552v6zm1.16 0v6c.605 0 3.053-.008 5.003-1.957l-4.243-4.243-4.243-4.243a5.394 5.394 0 012.426-1.41c.533-.14.927-.147 1.057-.147v6zm.76-.2l4.609 3.841c1.404-1.685 1.591-3.556 1.591-4.561h-12c0-.365.054-1.756 1.191-3.121l4.609 3.841zm.2-.72h6v-30.32h-12v30.32h6zm-13.32-25.28v6h4.56v-12h-4.56v6zm4.56 0h-6v10.88h12v-10.88h-6zm0 10.88v-6h-4.56v12h4.56v-6zm-4.56 0h6v-10.88h-12v10.88h6zm-2.96 4.04v6h13.08v-12h-13.08v6zm13.08 0h-6v10.92h12v-10.92h-6zm0 10.92v-6h-13.08v12h13.08v-6zm-13.08 0h6v-3.64h-12v3.64h6zm0-3.64v6h8.64v-12h-8.64v6zm8.64 0h6v-3.64h-12v3.64h6zm0-3.64v-6h-8.64v12h8.64v-6zm-8.64 0h6v-3.64h-12v3.64h6zm-2.4-3.64v6h4.32v-12h-4.32v6zm4.32 0h-6v13.12h12v-13.12h-6zm0 13.12v-6h-4.32v12h4.32v-6zm-4.32 0h6v-13.12h-12v13.12h6z" fill="#fff" mask="url(#prefix__B)"/><mask id="prefix__C" maskUnits="userSpaceOnUse" x="108.392" y="95.387" width="71" height="44" fill="#000"><path fill="#fff" d="M108.392 95.387h71v44h-71z"/><path d="M130.862 133.197c-2.91 0-5.55-.585-7.92-1.755-2.34-1.2-4.2-2.97-5.58-5.31-1.38-2.34-2.07-5.205-2.07-8.595 0-2.58.42-4.845 1.26-6.795.84-1.95 1.98-3.585 3.42-4.905 1.47-1.32 3.15-2.31 5.04-2.97 1.92-.66 3.945-.99 6.075-.99 1.71 0 3.285.195 4.725.585 1.44.39 2.79.93 4.05 1.62l.18 5.535h-.45l-2.25-3.6c-.3-.57-.63-1.08-.99-1.53-.36-.48-.81-.84-1.35-1.08-.45-.21-.9-.36-1.35-.45-.42-.12-.96-.18-1.62-.18-1.74 0-3.33.465-4.77 1.395-1.41.93-2.55 2.475-3.42 4.635-.84 2.13-1.26 5.055-1.26 8.775 0 3.69.405 6.615 1.215 8.775.81 2.13 1.905 3.66 3.285 4.59 1.41.9 2.985 1.35 4.725 1.35.96 0 1.725-.06 2.295-.18a9.85 9.85 0 001.71-.63c.57-.24 1.005-.585 1.305-1.035.3-.48.57-.99.81-1.53l1.98-4.41h.45l-.135 6.435c-1.26.66-2.67 1.2-4.23 1.62-1.56.42-3.27.63-5.13.63zm18.384-.81v-.45l.9-.315c.6-.18.99-.45 1.17-.81.21-.36.315-.84.315-1.44v-23.58c0-.6-.105-1.08-.315-1.44-.21-.36-.615-.645-1.215-.855l-.855-.36v-.45h10.935c4.47 0 7.695.825 9.675 2.475 2.01 1.62 3.015 3.765 3.015 6.435 0 1.71-.42 3.285-1.26 4.725-.81 1.41-2.16 2.535-4.05 3.375-1.89.84-4.44 1.26-7.65 1.26h-1.53v8.28c0 1.17.585 1.935 1.755 2.295l1.35.405v.45h-12.24zm9.135-12.33h1.71c1.47 0 2.67-.24 3.6-.72.93-.48 1.62-1.32 2.07-2.52.45-1.2.675-2.865.675-4.995 0-2.16-.255-3.84-.765-5.04-.48-1.2-1.2-2.025-2.16-2.475-.96-.48-2.16-.72-3.6-.72h-1.53v16.47z"/></mask><path d="M130.862 133.197c-2.91 0-5.55-.585-7.92-1.755-2.34-1.2-4.2-2.97-5.58-5.31-1.38-2.34-2.07-5.205-2.07-8.595 0-2.58.42-4.845 1.26-6.795.84-1.95 1.98-3.585 3.42-4.905 1.47-1.32 3.15-2.31 5.04-2.97 1.92-.66 3.945-.99 6.075-.99 1.71 0 3.285.195 4.725.585 1.44.39 2.79.93 4.05 1.62l.18 5.535h-.45l-2.25-3.6c-.3-.57-.63-1.08-.99-1.53-.36-.48-.81-.84-1.35-1.08-.45-.21-.9-.36-1.35-.45-.42-.12-.96-.18-1.62-.18-1.74 0-3.33.465-4.77 1.395-1.41.93-2.55 2.475-3.42 4.635-.84 2.13-1.26 5.055-1.26 8.775 0 3.69.405 6.615 1.215 8.775.81 2.13 1.905 3.66 3.285 4.59 1.41.9 2.985 1.35 4.725 1.35.96 0 1.725-.06 2.295-.18a9.85 9.85 0 001.71-.63c.57-.24 1.005-.585 1.305-1.035.3-.48.57-.99.81-1.53l1.98-4.41h.45l-.135 6.435c-1.26.66-2.67 1.2-4.23 1.62-1.56.42-3.27.63-5.13.63zm18.384-.81v-.45l.9-.315c.6-.18.99-.45 1.17-.81.21-.36.315-.84.315-1.44v-23.58c0-.6-.105-1.08-.315-1.44-.21-.36-.615-.645-1.215-.855l-.855-.36v-.45h10.935c4.47 0 7.695.825 9.675 2.475 2.01 1.62 3.015 3.765 3.015 6.435 0 1.71-.42 3.285-1.26 4.725-.81 1.41-2.16 2.535-4.05 3.375-1.89.84-4.44 1.26-7.65 1.26h-1.53v8.28c0 1.17.585 1.935 1.755 2.295l1.35.405v.45h-12.24zm9.135-12.33h1.71c1.47 0 2.67-.24 3.6-.72.93-.48 1.62-1.32 2.07-2.52.45-1.2.675-2.865.675-4.995 0-2.16-.255-3.84-.765-5.04-.48-1.2-1.2-2.025-2.16-2.475-.96-.48-2.16-.72-3.6-.72h-1.53v16.47z" fill="#901717"/><path d="M122.942 131.442l-2.738 5.339.041.021.041.02 2.656-5.38zm-5.58-5.31l5.168-3.048-5.168 3.048zm-.81-15.39l-5.51-2.374 5.51 2.374zm3.42-4.905l-4.009-4.464-.023.02-.022.021 4.054 4.423zm5.04-2.97l-1.95-5.674-.014.005-.014.004 1.978 5.665zm10.8-.405l-1.568 5.791 1.568-5.791zm4.05 1.62l5.997-.195-.111-3.423-3.004-1.645-2.882 5.263zm.18 5.535v6h6.198l-.201-6.195-5.997.195zm-.45 0l-5.088 3.18 1.763 2.82h3.325v-6zm-2.25-3.6l-5.309 2.794.103.197.118.189 5.088-3.18zm-.99-1.53l-4.8 3.6.056.075.059.073 4.685-3.748zm-1.35-1.08l-2.537 5.437.05.023.05.023 2.437-5.483zm-1.35-.45l-1.648 5.769.233.067.238.047 1.177-5.883zm-6.39 1.215l-3.255-5.04-.024.015-.024.016 3.303 5.009zm-3.42 4.635l-5.565-2.242-.009.02-.008.021 5.582 2.201zm-.045 17.55l-5.618 2.107.005.013.005.013 5.608-2.133zm3.285 4.59l-3.353 4.976.062.041.063.04 3.228-5.057zm7.02 1.17l1.236 5.871.146-.031.145-.038-1.527-5.802zm1.71-.63l-2.328-5.53-.122.051-.118.057 2.568 5.422zm1.305-1.035l4.992 3.328.049-.073.047-.075-5.088-3.18zm.81-1.53l-5.474-2.458-.004.011-.005.01 5.483 2.437zm1.98-4.41v-6h-3.883l-1.591 3.542 5.474 2.458zm.45 0l5.999.126.128-6.126h-6.127v6zm-.135 6.435l2.784 5.315 3.14-1.645.075-3.544-5.999-.126zm-9.36 2.25v-6c-2.083 0-3.801-.413-5.264-1.135l-2.656 5.38-2.656 5.38c3.277 1.618 6.839 2.375 10.576 2.375v-6zm-7.92-1.755l2.738-5.339c-1.295-.664-2.327-1.623-3.15-3.019l-5.168 3.048-5.168 3.048c1.937 3.284 4.625 5.865 8.01 7.601l2.738-5.339zm-5.58-5.31l5.168-3.048c-.715-1.214-1.238-2.966-1.238-5.547h-12c0 4.199.858 8.176 2.902 11.643l5.168-3.048zm-2.07-8.595h6c0-1.935.315-3.364.771-4.421l-5.511-2.374-5.51-2.374c-1.225 2.843-1.75 5.944-1.75 9.169h6zm1.26-6.795l5.511 2.374c.534-1.241 1.201-2.157 1.963-2.856l-4.054-4.423-4.054-4.423c-2.118 1.941-3.731 4.294-4.876 6.954l5.51 2.374zm3.42-4.905l4.009 4.464a8.73 8.73 0 013.009-1.769l-1.978-5.665-1.978-5.665a20.74 20.74 0 00-7.071 4.171l4.009 4.464zm5.04-2.97l1.951 5.674c1.262-.434 2.625-.664 4.124-.664v-12c-2.761 0-5.447.43-8.025 1.316l1.95 5.674zm6.075-.99v6c1.256 0 2.296.143 3.157.376l1.568-5.791 1.569-5.791c-2.02-.547-4.13-.794-6.294-.794v6zm4.725.585l-1.568 5.791c1 .271 1.907.638 2.736 1.092l2.882-5.263 2.882-5.263a24.427 24.427 0 00-5.363-2.148l-1.569 5.791zm4.05 1.62l-5.997.195.18 5.535 5.997-.195 5.997-.195-.18-5.535-5.997.195zm.18 5.535v-6h-.45v12h.45v-6zm-.45 0l5.088-3.18-2.25-3.6-5.088 3.18-5.088 3.18 2.25 3.6 5.088-3.18zm-2.25-3.6l5.31-2.795a15.593 15.593 0 00-1.615-2.483l-4.685 3.748-4.685 3.748c.096.12.223.305.366.576l5.309-2.794zm-.99-1.53l4.8-3.6a9.378 9.378 0 00-3.713-2.963l-2.437 5.483-2.437 5.483a2.627 2.627 0 01-1.013-.803l4.8-3.6zm-1.35-1.08l2.537-5.437a11.935 11.935 0 00-2.71-.897l-1.177 5.884-1.177 5.883a.334.334 0 01-.045-.011l.035.015 2.537-5.437zm-1.35-.45l1.648-5.77c-1.154-.33-2.304-.41-3.268-.41v12c.075 0 .132.002.173.004l.065.004a1.878 1.878 0 01-.266-.059l1.648-5.769zm-1.62-.18v-6c-2.876 0-5.6.788-8.025 2.355l3.255 5.04 3.255 5.04c.455-.293.911-.435 1.515-.435v-6zm-4.77 1.395l-3.303-5.009c-2.747 1.812-4.525 4.528-5.682 7.402l5.565 2.242 5.566 2.242c.582-1.446 1.085-1.82 1.158-1.868l-3.304-5.009zm-3.42 4.635l-5.582-2.201c-1.235 3.132-1.678 6.914-1.678 10.976h12c0-3.378.397-5.446.842-6.574l-5.582-2.201zm-1.26 8.775h-6c0 4.031.429 7.767 1.597 10.882l5.618-2.107 5.618-2.107c-.452-1.205-.833-3.319-.833-6.668h-6zm1.215 8.775l-5.608 2.133c1.091 2.87 2.816 5.597 5.54 7.433l3.353-4.976 3.353-4.976c-.036-.024-.501-.357-1.03-1.747l-5.608 2.133zm3.285 4.59l-3.228 5.057c2.414 1.542 5.118 2.293 7.953 2.293v-12c-.644 0-1.091-.149-1.497-.408l-3.228 5.058zm4.725 1.35v6c1.145 0 2.379-.066 3.531-.309l-1.236-5.871-1.236-5.871c.033-.007-.034.009-.234.024-.194.016-.465.027-.825.027v6zm2.295-.18l1.527 5.802c.952-.25 1.87-.592 2.752-1.01l-2.569-5.422-2.568-5.422c-.259.122-.481.2-.669.25l1.527 5.802zm1.71-.63l2.328 5.53c1.495-.629 2.926-1.672 3.969-3.237l-4.992-3.328-4.992-3.328c.443-.665 1.004-1.018 1.359-1.167l2.328 5.53zm1.305-1.035l5.088 3.18c.455-.728.856-1.488 1.205-2.273l-5.483-2.437-5.483-2.437c-.131.295-.27.555-.415.787l5.088 3.18zm.81-1.53l5.474 2.458 1.98-4.41-5.474-2.458-5.474-2.458-1.98 4.41 5.474 2.458zm1.98-4.41v6h.45v-12h-.45v6zm.45 0l-5.999-.126-.135 6.435 5.999.126 5.999.126.135-6.435-5.999-.126zm-.135 6.435l-2.784-5.315c-.822.431-1.814.82-3.006 1.141l1.56 5.794 1.56 5.794c1.928-.519 3.756-1.21 5.454-2.099l-2.784-5.315zm-4.23 1.62l-1.56-5.794c-.981.264-2.159.424-3.57.424v12c2.309 0 4.551-.261 6.69-.836l-1.56-5.794zm13.254-.18h-6v6h6v-6zm0-.45l-1.982-5.663-4.018 1.406v4.257h6zm.9-.315l-1.724-5.747-.13.039-.128.045 1.982 5.663zm1.17-.81l-5.182-3.023-.098.167-.086.173 5.366 2.683zm-1.215-27.315l-2.328 5.53.171.072.175.061 1.982-5.663zm-.855-.36h-6v3.984l3.672 1.546 2.328-5.53zm0-.45v-6h-6v6h6zm20.61 2.475l-3.841 4.609.038.032.038.031 3.765-4.672zm1.755 11.16l-5.182-3.023-.01.017-.01.017 5.202 2.989zm-13.23 4.635v-6h-6v6h6zm1.755 10.575l-1.764 5.735.02.006.02.006 1.724-5.747zm1.35.405h6v-4.464l-4.276-1.283-1.724 5.747zm0 .45v6h6v-6h-6zm-3.105-12.33h-6v6h6v-6zm5.31-.72l2.752 5.332-2.752-5.332zm2.07-2.52l5.618 2.107-5.618-2.107zm-.09-10.035l-5.571 2.228.024.06.025.059 5.522-2.347zm-2.16-2.475l-2.683 5.367.068.033.069.033 2.546-5.433zm-5.13-.72v-6h-6v6h6zm-9.135 28.8h6v-.45h-12v.45h6zm0-.45l1.982 5.663.9-.315-1.982-5.663-1.982-5.663-.9.315 1.982 5.663zm.9-.315l1.724 5.747c1.319-.396 3.568-1.384 4.813-3.874l-5.367-2.683-5.366-2.683c.885-1.771 2.354-2.219 2.472-2.254l1.724 5.747zm1.17-.81l5.183 3.023c.93-1.594 1.132-3.24 1.132-4.463h-12c0-.023-.007-.709.503-1.583l5.182 3.023zm.315-1.44h6v-23.58h-12v23.58h6zm0-23.58h6c0-1.223-.202-2.869-1.132-4.463l-5.183 3.023-5.182 3.023c-.51-.874-.503-1.56-.503-1.583h6zm-.315-1.44l5.183-3.023c-1.223-2.097-3.148-3.051-4.416-3.495l-1.982 5.663-1.982 5.663c-.068-.024-1.182-.408-1.985-1.785l5.182-3.023zm-1.215-.855l2.329-5.53-.855-.36-2.329 5.53-2.328 5.53.855.36 2.328-5.53zm-.855-.36h6v-.45h-12v.45h6zm0-.45v6h10.935v-12h-10.935v6zm10.935 0v6c4 0 5.48.789 5.834 1.084l3.841-4.609 3.841-4.609c-3.606-3.005-8.576-3.866-13.516-3.866v6zm9.675 2.475l-3.765 4.672c.542.436.78.836.78 1.763h12c0-4.413-1.771-8.303-5.25-11.107l-3.765 4.672zm3.015 6.435h-6c0 .676-.152 1.204-.442 1.702l5.182 3.023 5.183 3.023c1.39-2.382 2.077-5.004 2.077-7.748h-6zm-1.26 4.725l-5.202-2.989c-.022.039-.239.417-1.284.881l2.436 5.483 2.437 5.483c2.735-1.216 5.218-3.088 6.816-5.869l-5.203-2.989zm-4.05 3.375l-2.436-5.483c-.818.363-2.428.743-5.214.743v12c3.634 0 7.124-.46 10.087-1.777l-2.437-5.483zm-7.65 1.26v-6h-1.53v12h1.53v-6zm-1.53 0h-6v8.28h12v-8.28h-6zm0 8.28h-6c0 1.612.42 3.457 1.673 5.096 1.234 1.614 2.864 2.486 4.318 2.934l1.764-5.735 1.765-5.735c.284.088 1.036.397 1.685 1.247.668.873.795 1.751.795 2.193h-6zm1.755 2.295l-1.724 5.747 1.35.405 1.724-5.747 1.724-5.747-1.35-.405-1.724 5.747zm1.35.405h-6v.45h12v-.45h-6zm0 .45v-6h-12.24v12h12.24v-6zm-3.105-12.33v6h1.71v-12h-1.71v6zm1.71 0v6c2.063 0 4.298-.328 6.352-1.388l-2.752-5.332-2.752-5.332c.108-.055.12-.04-.022-.012-.144.029-.41.064-.826.064v6zm3.6-.72l2.752 5.332c2.534-1.308 4.087-3.48 4.936-5.745l-5.618-2.107-5.618-2.107c-.034.091-.014 0 .127-.171.153-.186.381-.385.669-.534l2.752 5.332zm2.07-2.52l5.618 2.107c.816-2.174 1.057-4.664 1.057-7.102h-12c0 1.822-.208 2.662-.293 2.888l5.618 2.107zm.675-4.995h6c0-2.505-.276-5.114-1.243-7.387l-5.522 2.347-5.522 2.347c.054.126.287.878.287 2.693h6zm-.765-5.04l5.571-2.228c-.915-2.287-2.558-4.449-5.184-5.68l-2.547 5.433-2.546 5.433a2.2 2.2 0 01-.714-.532c-.156-.179-.184-.281-.151-.198l5.571-2.228zm-2.16-2.475l2.684-5.367c-2.028-1.013-4.216-1.353-6.284-1.353v12c.812 0 1.025.14.917.087l2.683-5.367zm-3.6-.72v-6h-1.53v12h1.53v-6zm-1.53 0h-6v16.47h12v-16.47h-6z" fill="#fff" mask="url(#prefix__C)"/><path d="M57.887 53.905c1.103.94 1.847 1.949 2.232 3.026.381 1.074.45 2.143.206 3.208-.247 1.061-.761 2.042-1.541 2.942-.786.906-1.691 1.56-2.715 1.958-1.025.393-2.102.483-3.23.27-1.128-.219-2.24-.796-3.337-1.731-1.103-.94-1.846-1.946-2.23-3.017-.385-1.077-.455-2.144-.21-3.203.243-1.064.758-2.05 1.544-2.956.78-.9 1.682-1.55 2.707-1.948 1.02-.402 2.097-.495 3.228-.28 1.128.214 2.243.79 3.346 1.73zm-2.407 2.777c-.594-.506-1.162-.852-1.706-1.04-.545-.194-1.055-.227-1.531-.098-.477.123-.909.408-1.296.854-.387.447-.608.915-.661 1.404-.055.483.054.979.326 1.487.272.501.705 1.005 1.298 1.511.593.506 1.162.856 1.707 1.05.543.188 1.054.22 1.53.098.476-.129.908-.417 1.295-.864.388-.446.608-.911.663-1.394.053-.49-.056-.985-.327-1.487-.272-.508-.705-1.015-1.298-1.52zm7.775-6.197l3.524 4.205-2.731 2.27-6.266-7.477 2.593-2.154 1.191 1.421.08-.066a2.752 2.752 0 01-.064-1.838c.193-.617.568-1.158 1.126-1.62.537-.448 1.106-.714 1.706-.8a3.2 3.2 0 011.757.225c.575.238 1.087.63 1.538 1.174l3.998 4.77-2.731 2.27-3.525-4.206c-.306-.373-.645-.583-1.017-.633-.368-.052-.723.065-1.066.35-.225.186-.38.398-.467.635a1.22 1.22 0 00-.038.726c.058.249.188.498.392.748zm14.006-3.207c-.902.549-1.782.852-2.641.91a4.211 4.211 0 01-2.4-.562c-.74-.431-1.382-1.095-1.929-1.991-.524-.86-.806-1.72-.846-2.577-.04-.858.151-1.66.574-2.409.424-.748 1.071-1.388 1.943-1.919.638-.388 1.274-.642 1.91-.761a4.254 4.254 0 011.843.044 4.385 4.385 0 011.666.83c.52.407.98.94 1.383 1.602l.423.694-7.54 4.592-1.005-1.648 4.749-2.892a1.332 1.332 0 00-.57-.515 1.387 1.387 0 00-.74-.137c-.261.016-.518.1-.771.255-.246.15-.439.339-.58.569a1.487 1.487 0 00-.237.724c-.011.254.054.504.194.751l1.083 1.778c.163.268.365.472.607.612.241.14.504.206.79.196.285-.01.577-.107.878-.29.209-.127.382-.272.519-.435.14-.165.24-.34.298-.523.057-.188.067-.378.03-.57l2.77-1.686a3.62 3.62 0 01.243 1.919c-.098.64-.368 1.255-.811 1.847-.442.586-1.053 1.117-1.833 1.592zm11.756-5.747L81.591 30.19l3.814-1.161 4.005 7.149.099-.03-.241-8.296 3.001-.913 4.333 7.075.098-.03-.568-8.222 3.814-1.16-.004 13.603-3.273.996-4.213-6.315-.099.03-.067 7.619-3.273.996zm19.4-4.475c-1.049.086-1.967-.04-2.754-.376a4.14 4.14 0 01-1.868-1.585c-.459-.72-.725-1.606-.799-2.656-.071-1.008.072-1.905.428-2.692a4.451 4.451 0 011.61-1.9c.716-.48 1.582-.76 2.597-.843.742-.06 1.422-.001 2.039.179.618.18 1.155.47 1.612.871.457.398.823.896 1.096 1.495.274.6.438 1.287.493 2.061l.057.813-8.776.714-.136-1.93 5.527-.45a1.327 1.327 0 00-.27-.72 1.36 1.36 0 00-.592-.456 1.64 1.64 0 00-.799-.12 1.714 1.714 0 00-.774.248 1.508 1.508 0 00-.541.543 1.407 1.407 0 00-.172.76l.147 2.084c.022.313.108.587.258.822.149.235.353.412.61.531.257.12.56.166.91.137.243-.02.462-.072.658-.156.2-.084.368-.196.504-.334.136-.143.231-.309.287-.496l3.224-.263a3.678 3.678 0 01-.663 1.83c-.378.529-.899.959-1.562 1.29-.659.325-1.443.525-2.351.6zm10.906.03c-1.047-.086-1.93-.36-2.649-.821a4.127 4.127 0 01-1.577-1.872c-.332-.787-.448-1.706-.347-2.756.097-1.007.386-1.87.867-2.59a4.468 4.468 0 011.899-1.615c.785-.357 1.684-.493 2.697-.41.74.062 1.399.233 1.978.51a4.159 4.159 0 011.442 1.126c.384.467.661 1.019.832 1.656.17.637.218 1.343.144 2.118l-.078.813-8.758-.729.185-1.93 5.515.459a1.33 1.33 0 00-.146-.755 1.354 1.354 0 00-.507-.548 1.632 1.632 0 00-.767-.25 1.707 1.707 0 00-.803.12c-.25.098-.457.248-.622.447-.161.2-.259.441-.295.724l-.2 2.083c-.03.313.009.598.117.855.108.256.279.464.513.625.233.16.524.255.873.284.243.02.467.004.674-.047.21-.05.394-.133.551-.248.158-.12.279-.267.365-.444l3.217.268a3.707 3.707 0 01-.955 1.7c-.46.46-1.044.8-1.752 1.019-.702.214-1.507.284-2.413.209zm9.891-.982l1.111-4.044.446.113 3.159-2.601 3.841.974-5.197 3.984-.967-.245-2.393 1.82zm-3.675 1.468l3.391-12.645 3.419.867-3.391 12.646-3.419-.868zm5.872 1.49l-1.173-4.307 2.879-1.855 2.21 7.156-3.916-.994zm22.619 1.134l-3.172-1.687c.121-.275.191-.545.21-.81a1.79 1.79 0 00-.092-.761 1.82 1.82 0 00-.405-.68 2.612 2.612 0 00-.733-.558c-.525-.279-1.039-.388-1.543-.326-.499.063-.973.283-1.421.66-.445.379-.85.902-1.215 1.57-.386.704-.615 1.345-.688 1.92-.067.575.013 1.078.242 1.51.231.427.599.776 1.106 1.045.288.154.567.256.834.306.27.047.528.045.772-.004.245-.049.473-.143.685-.282.217-.14.413-.325.585-.553l3.161 1.71a4.969 4.969 0 01-1.226 1.273 5.63 5.63 0 01-1.771.86c-.663.194-1.384.25-2.163.17-.779-.08-1.591-.344-2.435-.793-1.057-.563-1.882-1.294-2.474-2.195-.588-.898-.884-1.918-.89-3.058-.001-1.139.347-2.346 1.044-3.62.702-1.284 1.541-2.232 2.516-2.846.977-.618 2.009-.93 3.095-.932 1.089-.008 2.15.264 3.185.815a7.244 7.244 0 011.846 1.366c.502.524.879 1.1 1.131 1.727.254.625.37 1.289.348 1.994-.023.704-.2 1.43-.532 2.179zm.959 11.193c-.826-.664-1.399-1.397-1.718-2.198a4.297 4.297 0 01-.222-2.47c.172-.845.578-1.66 1.218-2.442.641-.782 1.359-1.342 2.156-1.68.8-.34 1.628-.438 2.484-.294.86.142 1.702.545 2.528 1.209.826.664 1.398 1.398 1.714 2.203.32.8.394 1.624.222 2.47-.169.842-.574 1.654-1.214 2.436-.641.783-1.361 1.344-2.16 1.685a4.408 4.408 0 01-2.484.294c-.857-.144-1.698-.549-2.524-1.213zm1.68-2.013a1.1 1.1 0 00.791.249c.296-.02.608-.138.937-.352.328-.214.655-.52.981-.917.328-.401.563-.781.704-1.14.143-.364.195-.69.154-.982a1.084 1.084 0 00-.409-.716 1.177 1.177 0 00-.82-.272c-.303.015-.619.13-.947.343-.326.211-.653.517-.981.918-.326.398-.56.778-.704 1.14-.144.363-.192.693-.144.99.048.296.194.543.438.74zm10.824 7.9l4.168-3.675 2.332 2.619-7.41 6.534-2.214-2.486 1.409-1.242-.068-.076a2.82 2.82 0 01-1.848.149c-.616-.163-1.166-.516-1.651-1.06-.453-.51-.731-1.06-.834-1.653a3.23 3.23 0 01.194-1.755c.233-.577.617-1.105 1.155-1.585l4.728-4.17 2.332 2.62-4.169 3.675c-.363.326-.57.672-.618 1.036-.046.368.078.716.371 1.045.194.218.408.365.642.441.24.077.485.08.735.013.256-.067.504-.21.746-.43zm-2.991 8.858l11.511-7.225 1.851 2.946-1.46.917.04.064c.351-.07.71-.075 1.077-.016.37.057.723.196 1.059.415.339.217.637.53.893.938.343.545.521 1.155.535 1.83.017.68-.194 1.372-.633 2.077-.436.709-1.16 1.38-2.17 2.014-.966.607-1.861.96-2.684 1.063-.82.105-1.542.008-2.165-.29a3.484 3.484 0 01-1.486-1.324 3.154 3.154 0 01-.461-1.157 2.804 2.804 0 01.042-1.106c.092-.353.244-.675.456-.968l-.027-.043-4.513 2.832-1.865-2.967zm9.149-1.695c-.407.256-.726.529-.959.82-.227.292-.361.586-.403.882a1.28 1.28 0 00.203.855c.171.272.394.455.67.546.281.093.601.098.958.013.363-.083.752-.254 1.166-.514.415-.26.736-.534.965-.823.235-.287.37-.577.405-.868.04-.29-.025-.572-.196-.844a1.284 1.284 0 00-.683-.554c-.278-.095-.599-.103-.965-.024-.359.08-.746.251-1.161.511zm13.437 6.986l-11.864 5.737-1.518-3.16 11.864-5.736 1.518 3.159zm-9.786 11.85c-.348-.983-.458-1.897-.331-2.744a4.244 4.244 0 011.066-2.228c.584-.638 1.376-1.137 2.376-1.497.961-.346 1.868-.457 2.721-.333a4.357 4.357 0 012.252 1.019c.647.554 1.139 1.306 1.476 2.256.246.695.36 1.363.341 2.004a4.212 4.212 0 01-.438 1.785A4.482 4.482 0 01185.591 85c-.512.428-1.138.775-1.876 1.04l-.774.28-2.913-8.214 1.84-.663 1.834 5.172c.265-.1.475-.252.63-.456.16-.202.258-.433.293-.693.04-.258.012-.524-.086-.8a1.654 1.654 0 00-.436-.673 1.48 1.48 0 00-.663-.369 1.423 1.423 0 00-.783.046l-1.984.715a1.793 1.793 0 00-.733.474 1.45 1.45 0 00-.362.73c-.051.28-.018.584.098.91.08.228.186.424.317.589.133.168.283.298.453.39.173.09.357.137.553.138l1.07 3.018a3.692 3.692 0 01-1.943-.13c-.609-.218-1.158-.598-1.647-1.142-.483-.542-.875-1.238-1.177-2.088zM180.44 97.3l5.519-7.53a3.96 3.96 0 011.653-1.328 4.268 4.268 0 012.055-.33c.711.06 1.36.303 1.946.731.6.439 1.037.98 1.31 1.622.277.647.381 1.32.311 2.018a4.011 4.011 0 01-.756 1.967l-.704.993.968.717a3.958 3.958 0 011.311 1.629c.277.642.381 1.312.311 2.011a3.94 3.94 0 01-.756 1.968 3.865 3.865 0 01-1.629 1.317 4.21 4.21 0 01-2.054.337 3.833 3.833 0 01-1.971-.727l-7.514-5.394z" fill="#A55959"/></svg>